<?xml version="1.0" standalone="no"?>
<!DOCTYPE svg PUBLIC "-//W3C//DTD SVG 1.1//EN" "http://www.w3.org/Graphics/SVG/1.1/DTD/svg11.dtd" >
<svg xmlns="http://www.w3.org/2000/svg" xmlns:xlink="http://www.w3.org/1999/xlink" version="1.1">
<metadata></metadata>
<defs>
<font id="japanese_styleregular" horiz-adv-x="1014" >
<font-face units-per-em="2048" ascent="1638" descent="-410" />
<missing-glyph horiz-adv-x="508" />
<glyph horiz-adv-x="0" />
<glyph unicode="&#xd;" horiz-adv-x="508" />
<glyph unicode=" "  horiz-adv-x="508" />
<glyph unicode="&#x09;" horiz-adv-x="508" />
<glyph unicode="&#xa0;" horiz-adv-x="508" />
<glyph unicode="!" horiz-adv-x="672" d="M207 136q0 15 16 31l82 84q15 14 29 14q13 0 31 -16l80 -86q12 -16 12 -29q0 -15 -14 -31l-80 -88q-20 -20 -29 -20q-16 0 -29 14l-88 101q-10 13 -10 26zM264 1364q0 46 21 69t62 23q42 0 62.5 -23t20.5 -69l-80 -1036h-37z" />
<glyph unicode="&#x22;" horiz-adv-x="672" d="M101 1500q0 37 20.5 57t59.5 20t60.5 -19.5t21.5 -56.5q0 -8 -4 -34l-62 -359h-30l-62 359q-4 23 -4 33zM413 1500q0 37 20.5 57t59.5 20t60.5 -19.5t21.5 -56.5q0 -8 -4 -34l-62 -359h-30l-62 359q-4 23 -4 33z" />
<glyph unicode="#" horiz-adv-x="1336" d="M117 472l30 98h271l86 290h-295l29 97h295l140 477h93l-141 -477h242l142 477h92l-141 -477h259l-29 -97h-259l-83 -290h279l-30 -98h-280l-140 -472h-92l139 472h-240l-142 -472h-92l140 472h-273zM511 569h242l86 290h-243z" />
<glyph unicode="$" d="M113 1079q0 166 125 271q105 88 266 102v100h73v-102q68 -8 141 -35q10 -6 19 -6q25 0 41 45h50l103 -282h-49q-60 134 -168 179q-74 30 -137 39v-540q241 -93 322.5 -183t81.5 -264q0 -197 -119.5 -300t-284.5 -120v-239h-73v237q-188 3 -266 38q-10 6 -19 6 q-25 0 -41 -45h-50v331h49q50 -183 152.5 -226t174.5 -43v635q-214 67 -299 153q-92 91 -92 249zM219 1139q0 -98 55 -153q52 -54 230 -113v520q-119 -5 -199 -72q-86 -73 -86 -182zM577 45q125 17 211.5 96t86.5 219q0 116 -69 183q-62 59 -229 112v-610z" />
<glyph unicode="%" horiz-adv-x="1610" d="M62 1080q0 100 52 190.5t144.5 139.5t190.5 49t190.5 -49t144.5 -139.5t52 -190.5q0 -99 -50.5 -188.5t-143 -140t-193.5 -50.5q-100 0 -192.5 50.5t-143.5 140t-51 188.5zM202 1128q0 -31 4 -62q13 -92 55.5 -173.5t106.5 -124.5q57 -40 114 -40q7 0 13 1q63 3 115 53 t73 136q13 54 13 111q0 32 -4 65q-12 93 -56 175.5t-107 124.5q-58 38 -115 38h-11q-61 -3 -113 -52t-73 -135q-15 -58 -15 -117zM297 -29l940 1461h84l-938 -1461h-86zM774 359q0 99 52 189.5t144.5 140t190.5 49.5q97 0 190 -49.5t145 -140t52 -189.5q0 -100 -50.5 -189.5 t-143 -139.5t-193.5 -50t-193 50t-143 139.5t-51 189.5zM914 406q0 -31 4 -62q13 -92 55.5 -173.5t106.5 -124.5q59 -39 116 -39h11q63 3 115 53t73 136q13 54 13 111q0 32 -4 65q-12 93 -56 175.5t-107 124.5q-58 38 -115 38h-11q-61 -3 -113 -52t-73 -135 q-15 -58 -15 -117z" />
<glyph unicode="&#x26;" horiz-adv-x="1683" d="M152 520q0 161 76 266.5t225 151.5q-42 61 -62.5 116t-20.5 111q0 105 77 197t182 92q68 0 142 -39q9 -6 18 -6q23 0 38 45h46l96 -281h-46q-55 133 -155 178q-85 37 -141 37q-65 0 -106 -45.5t-41 -117.5q0 -131 102 -267l531 -670q98 146 121 244q17 78 17 130 q0 97 -62 97h-90v50h443v-50h-90q-95 0 -145 -227q-31 -132 -155 -292q109 -136 248 -136h16q143 17 192 128l49 -1l-103 -231h-160q-56 0 -139 25t-167 132q-67 -74 -175 -123.5t-241 -49.5q-229 0 -374.5 150.5t-145.5 385.5zM256 589q0 -91 35.5 -181.5t101.5 -164.5 q72 -83 165 -127t194 -44q88 0 169 33.5t130 90.5l-554 683q-118 0 -179.5 -86t-61.5 -204z" />
<glyph unicode="'" horiz-adv-x="346" d="M101 1500q0 37 20.5 57t59.5 20t60.5 -19.5t21.5 -56.5q0 -8 -4 -34l-62 -359h-30l-62 359q-4 23 -4 33z" />
<glyph unicode="(" horiz-adv-x="758" d="M252 601q2 277 99.5 530t268.5 442h80q-172 -242 -230 -438q-57 -193 -57 -523v-22q0 -330 57 -522q58 -196 230 -438h-80q-171 189 -268.5 441.5t-99.5 529.5z" />
<glyph unicode=")" horiz-adv-x="758" d="M58 -370q172 242 230 438q57 192 57 522v22q0 330 -57 523q-58 196 -230 438h80q171 -189 268.5 -442t99.5 -530q-2 -277 -99.5 -529.5t-268.5 -441.5h-80z" />
<glyph unicode="*" horiz-adv-x="1024" d="M218 1333q0 17 6 36q11 35 36 53q17 12 34 12q9 0 18 -3q20 -6 74 -62q47 -49 112 -75q-4 71 -37 130q-37 66 -37 84q0 32 23.5 51.5t62.5 19.5q37 0 61.5 -18t24.5 -47q0 -21 -36 -89q-33 -61 -37 -130q66 25 113 75q51 55 69 61q11 3 21 3q18 0 35 -10q26 -17 38 -53 q6 -19 6 -36q0 -15 -4 -28q-10 -30 -38 -38q-6 -2 -19 -2q-25 0 -76 9q-28 5 -55 5q-41 0 -81 -11q44 -55 105 -83q68 -32 79 -47q13 -18 13 -38q0 -9 -2 -17q-8 -30 -39 -53q-29 -22 -59 -22q-1 0 -1 1q-31 0 -48 23q-12 17 -22 94q-10 67 -47 125q-38 -58 -46 -124 q-9 -75 -20 -90q-19 -25 -49 -27h-5q-28 0 -57 21q-30 21 -39 51q-4 10 -4 20q0 17 11 32q13 17 83 51q61 29 105 82q-41 11 -80 11q-27 0 -53 -5q-54 -11 -78 -11q-9 0 -14 2q-30 9 -41 38q-6 13 -6 29z" />
<glyph unicode="+" d="M87 647v140h350v369l1 1h139v-370h349l1 -1v-139h-350v-370h-140v370h-350z" />
<glyph unicode="," horiz-adv-x="557" d="M119 91v42l119 125q44 0 88.5 -65.5t44.5 -151.5q0 -109 -71 -226.5t-139 -117.5v43q73 43 87 190q0 119 -129 161z" />
<glyph unicode="-" horiz-adv-x="670" d="M116 437v83q0 29 41 29h356q41 0 41 -29v-83q0 -28 -40 -28h-358q-40 0 -40 28z" />
<glyph unicode="." horiz-adv-x="557" d="M129 136q0 15 16 31l82 84q15 14 29 14q13 0 31 -16l80 -86q12 -16 12 -29q0 -15 -14 -31l-80 -88q-20 -20 -29 -20q-16 0 -29 14l-88 101q-10 13 -10 26z" />
<glyph unicode="/" horiz-adv-x="569" d="M13 -50l541 1484h80l-541 -1484h-80z" />
<glyph unicode="0" d="M77 717q0 194 57.5 372t160.5 274t212 96q108 0 211 -96t161 -274t58 -372t-56.5 -370t-159 -274t-214.5 -98t-214.5 98t-159 274t-56.5 370zM232 814q0 -62 5 -125q14 -180 61.5 -340t118.5 -244q65 -78 129 -78q6 0 12 1q70 7 127.5 104.5t81.5 265.5q15 107 15 220 q0 62 -5 126q-14 181 -62.5 343t-119.5 244q-65 76 -128 76q-6 0 -11 -1q-68 -7 -126 -102.5t-82 -264.5q-16 -110 -16 -225z" />
<glyph unicode="1" d="M218 1208v50q292 63 327 176h50v-1149q0 -235 103 -235h96v-50h-560v50h96q103 0 103 235v794q0 129 -117 129h-98z" />
<glyph unicode="2" d="M114 0l1 50q607 675 607 986q0 148 -86 245t-186 97q-170 0 -275 -131h-22v49q39 50 115 104t185 54q183 0 306.5 -121t123.5 -297q0 -262 -627 -916h422q130 0 209 112h49l-103 -232h-719z" />
<glyph unicode="3" d="M83 105v100h49q0 -83 86 -133t217 -50q151 0 218 116.5t67 280.5q0 104 -44.5 205.5t-176.5 148.5v19q81 45 144 120.5t63 209.5q0 110 -55 189.5t-166 92.5q-68 0 -123.5 -45t-55.5 -111h-42v159q0 20 73.5 33.5t155.5 13.5q155 0 257 -84t102 -249q0 -87 -61 -166 t-193 -139q93 -14 195 -134.5t102 -278.5q0 -163 -144 -294t-325 -131q-152 0 -247.5 39t-95.5 88z" />
<glyph unicode="4" d="M43 338v35l660 1061h34v-996h19q133 0 193 132h49l-103 -232h-158v-171q0 -117 72 -117h76v-50h-442v50h76q81 0 81 120v168h-557zM176 438h424v686z" />
<glyph unicode="5" d="M77 99v106h46q0 -88 86 -135.5t217 -47.5q151 0 217.5 116.5t66.5 347.5q0 159 -110 265t-285 106q-40 0 -86 -5l144 582h396q103 0 112 52h50l-63 -172h-429l-104 -415q226 0 388 -124.5t162 -300.5q0 -234 -143.5 -365t-324.5 -131q-152 0 -248 39q-92 37 -92 82z" />
<glyph unicode="6" d="M77 510q0 320 209 634.5t515 314.5v-48q-177 -12 -326.5 -179.5t-233.5 -467.5q96 93 266 93q108 0 211 -57t161 -162.5t58 -221.5t-56.5 -220.5t-144 -162.5t-169.5 -58q-243 0 -366.5 162.5t-123.5 372.5zM232 469q0 -153 95.5 -305.5t230.5 -152.5q101 0 163 98.5 t62 247.5q0 203 -100 333.5t-216 130.5q-91 0 -163 -101.5t-72 -250.5z" />
<glyph unicode="7" d="M96 1202l103 232h719l-1 -50q-370 -866 -370 -1205q0 -129 67 -129h117v-50h-411v50h67q72 0 72 131q19 296 278 1133h-399q-133 0 -192 -112h-50z" />
<glyph unicode="8" d="M77 403q0 112 57.5 214.5t160.5 158.5q41 21 82 35q-24 9 -48 21q-86 44 -133 123t-47 166t48 167t133.5 123t176.5 43q90 0 176 -43t134 -123t48 -167t-47 -166t-132 -123q-25 -13 -50 -21q42 -14 82 -35q103 -56 161 -158.5t58 -214.5t-56.5 -213.5t-159 -158 t-214.5 -56.5t-214.5 56.5t-159 158t-56.5 213.5zM235 422q0 -18 2 -35q14 -104 61.5 -196.5t118.5 -140.5q64 -44 128 -44h13q70 4 127.5 60t81.5 153q15 62 15 127q0 36 -5 73q-11 112 -73.5 212.5t-231.5 153.5q-114 -21 -181 -157q-56 -115 -56 -206zM278 1165 q0 -28 4 -57q12 -80 51.5 -152t218.5 -126q121 25 156 124q27 75 27 140q0 20 -3 39q-12 81 -52.5 154t-99.5 110q-55 33 -106 33h-9q-57 -3 -105.5 -46t-68.5 -119q-13 -49 -13 -100z" />
<glyph unicode="9" d="M77 1018q0 116 56.5 220.5t144 162.5t169.5 58q243 0 366.5 -162.5t123.5 -372.5q0 -320 -209 -634.5t-515 -314.5v48q177 12 326.5 179.5t233.5 467.5q-95 -93 -266 -93q-108 0 -211 57t-161 162.5t-58 221.5zM232 1077q0 -203 100 -333.5t215 -130.5q91 0 163.5 101.5 t72.5 250.5q0 153 -96 305.5t-231 152.5q-101 0 -162.5 -98.5t-61.5 -247.5z" />
<glyph unicode=":" horiz-adv-x="557" d="M129 136q0 15 16 31l82 84q15 14 29 14q13 0 31 -16l80 -86q12 -16 12 -29q0 -15 -14 -31l-80 -88q-20 -20 -29 -20q-16 0 -29 14l-88 101q-10 13 -10 26zM129 829q0 15 16 31l82 84q15 14 29 14q13 0 31 -16l80 -86q12 -16 12 -29q0 -15 -14 -31l-80 -88 q-20 -20 -29 -20q-16 0 -29 14l-88 101q-10 13 -10 26z" />
<glyph unicode=";" horiz-adv-x="557" d="M119 91v42l119 125q44 0 88.5 -65.5t44.5 -151.5q0 -109 -71 -226.5t-139 -117.5v43q73 43 87 190q0 119 -129 161zM129 828q0 15 16 31l82 84q15 14 29 14q13 0 31 -16l80 -86q12 -16 12 -29q0 -15 -14 -31l-80 -88q-20 -20 -29 -20q-16 0 -29 14l-88 101q-10 13 -10 26 z" />
<glyph unicode="&#x3c;" d="M87 674v83l840 484v-167l-625 -359l625 -355v-167z" />
<glyph unicode="=" d="M87 491v140h840v-140h-840zM87 803v140h840v-140h-840z" />
<glyph unicode="&#x3e;" d="M87 193v167l625 355l-625 359v167l840 -484v-83z" />
<glyph unicode="?" horiz-adv-x="748" d="M132 1266v64q128 104 242 104q132 0 212 -68t80 -182q0 -69 -32.5 -140t-124.5 -186q-90 -113 -141.5 -187.5t-51.5 -142.5q0 -63 35 -189h-47q-50 138 -50 211q0 109 116.5 312t116.5 309q0 82 -47 129t-130 47q-84 0 -178 -81zM207 136q0 15 16 31l82 84q15 14 29 14 q13 0 31 -16l80 -86q12 -16 12 -29q0 -15 -14 -31l-80 -88q-20 -20 -29 -20q-16 0 -29 14l-88 101q-10 13 -10 26z" />
<glyph unicode="@" horiz-adv-x="2019" d="M100 508q0 242 124 464.5t345.5 342t456.5 119.5q362 0 609 -230t247 -566q0 -270 -176 -439q-175 -168 -346 -170q-63 1 -100.5 18t-61.5 54q-29 -37 -82 -64.5t-133 -27.5q-144 0 -256.5 100.5t-112.5 233.5q1 87 53 166.5t132.5 115t173.5 49.5q67 16 110 42.5 t43 74.5q-2 69 -41 125t-129 56q-72 0 -121.5 -59t-50.5 -125h-45v159q0 20 72 40q73 20 178 20q109 -2 193.5 -64.5t84.5 -157.5v-589q0 -117 94 -117q185 35 267 191.5t82 382.5q-20 335 -232 540q-197 188 -480 188q-205 0 -392.5 -137.5t-269.5 -355.5 q-67 -178 -67 -361q0 -313 129.5 -511.5t305 -290.5t318.5 -92q274 0 575 208v-75q-263 -184 -571 -184q-240 0 -461 122.5t-343 342t-122 461.5zM753 343q0 -107 64 -194t183 -87q97 5 126 167v476q-54 -63 -154 -83q-83 -10 -151 -80t-68 -199z" />
<glyph unicode="A" horiz-adv-x="1133" d="M-48 639q20 35 42 57q49 18 91 18h11q72 -11 72 -15l8 4q29 -19 57 -19q26 198 53 307q52 103 117 103q76 0 99 -49q27 -47 27 -110l-4 -8l4 -8q-35 -182 -103 -318v-12q107 -41 178 -53h50q7 -1 7 -7q0 -21 -186 -65l-7 4q-17 -7 -84 -11q-6 3 -15 3q-15 0 -34 -45 l-98 -160q-76 -135 -183 -269l-7 -4q-8 0 -8 8q91 205 137 383l23 95q-247 48 -247 171zM248 1314v26q0 64 102 91h19q97 -3 273 -121q132 -80 160 -80q77 -33 205 -45l22 7q4 0 4 -3l87 19l4 -8q-47 -53 -212 -91q-37 0 -69 -8q-20 4 -34 4h-38q-12 0 -19 -4 q-149 0 -383 84q-121 64 -121 129zM639 862q0 113 57 141q21 19 37 19h19q46 0 88 -69q-4 -7 -4 -11q26 0 53 -186q0 -37 11 -57l-3 -19q6 -17 11 -41l-4 -8q66 -338 133 -455q-4 -8 -4 -12q6 0 38 -68q72 -132 163 -243q23 -37 84 -94q0 -12 11 -12v-7q0 -8 -11 -8 q-29 5 -220 201q-128 138 -179 220q-137 204 -201 376q-79 195 -79 333z" />
<glyph unicode="B" horiz-adv-x="967" d="M0 1330q2 24 44 67q27 23 129 40q20 0 51 3q211 0 390 -104q149 -117 177 -193q8 0 22 -55l-4 -6l7 -22q0 -3 -3 -3l3 -15q0 -7 -3 -13q3 -6 3 -9q0 -139 -172 -257q-105 -52 -159 -52h-3q-8 0 -8 6v3q125 71 155 95q92 83 92 175q3 10 3 39q-15 82 -55 114 q-80 59 -169 92q-7 0 -7 6l-8 -3q-79 6 -95 9q-4 0 -4 -3l-18 3h-4q-96 -6 -239 -9q-98 0 -121 70zM162 953q14 200 103 233q37 15 59 15q62 -51 62 -116q4 0 4 -3q0 -4 -4 -4l4 -15q0 -16 -4 -52q0 -3 4 -3l-4 -15v-22q0 -6 -7 -6l3 -6q-7 -57 -14 -83q0 -3 3 -3 q-18 -95 -22 -159q-6 -19 -11 -19l4 -6v-3q0 -3 -4 -3l4 -6v-6l-4 -18q0 -3 4 -3l-7 -50l3 -6l-11 -58l4 -6l-4 -6l4 -6q-7 -13 -7 -19q3 -6 3 -9l-3 -6q3 -6 3 -9q-7 -15 -11 -15l4 -7q0 -3 -4 -3l4 -15v-9q0 -7 -4 -12l4 -7l-4 -12l4 -6l-4 -6q0 -3 4 -3q-4 -28 -7 -28 l3 -15v-12q0 -16 -7 -16q4 -5 4 -9l-4 -6l4 -6q-8 -74 -19 -74h-7q-16 0 -48 184q-4 0 -7 25l3 6q-11 8 -18 80h4q-18 52 -37 177q4 6 4 13q0 4 -8 27h4q-15 53 -19 123q0 3 4 3l-4 15q0 33 -3 86zM379 77v18q0 86 213 181q182 101 239 226q22 49 22 111q-15 66 -59 107 l-66 55l7 3h15q30 -1 99 -61q54 -65 70 -129q-3 -6 -3 -9q7 -20 7 -28v-24q0 -141 -110 -294q-32 -57 -177 -190q-73 -39 -118 -43h-22q-57 0 -88 21q-17 0 -29 56z" />
<glyph unicode="C" horiz-adv-x="763" d="M0 615q8 25 26 163q65 195 136 313q40 69 125 170q16 10 94 83q138 91 212 91q105 0 105 -65q8 0 8 -18v-4q0 -9 -4 -15l4 -8q-3 -11 -26 -49q-1 -14 -129 -121q-29 -5 -238 -207q-117 -160 -124 -219q-64 -146 -64 -280q0 -74 64 -204q80 -125 192 -169q38 -16 129 -27 q72 0 139 38h8v-11q-71 -76 -189 -76h-49q-32 0 -45 11l-8 -3q-181 79 -189 117q-18 4 -83 102q-90 180 -90 305h4l-4 8v41q0 14 -4 34z" />
<glyph unicode="D" horiz-adv-x="1156" d="M0 1102q0 143 238 260q167 75 264 75q4 0 4 -4l26 4h8q155 0 268 -60q12 0 59 -33q64 -23 138 -149q18 -11 33 -60q3 0 15 -19h-3q17 -50 33 -160q0 -3 -4 -3l4 -26v-34q0 -8 -4 -15l4 -7q-22 -135 -71 -231q-21 -79 -230 -309q-7 0 -97 -89q-73 -52 -160 -130l-183 -112 h-7q-5 0 -11 11q45 40 145 104q200 182 205 194q66 60 141 167q98 161 119 257q11 41 22 153q0 185 -126 283q-83 52 -190 74l-7 -4l-19 4q-149 -19 -283 -112q-159 -119 -197 -119q-14 -3 -41 -3h-22q-71 30 -71 93zM320 409v4q0 8 4 15l-4 7l4 8q0 4 -4 4q0 110 78 491 q4 11 8 11l-4 7l26 116l-4 7q0 9 19 11l4 -7v-7q0 -29 -4 -53q18 -192 26 -227h-4q56 -301 56 -372l-4 -15q4 -7 4 -11l-4 -7q0 -4 4 -4q0 -111 -82 -160h-30q-30 0 -59 60q-6 11 -22 67q-4 0 -4 3l4 8q-8 26 -8 44z" />
<glyph unicode="E" horiz-adv-x="902" d="M0 1310q15 40 36 54q18 30 119 47l137 22h177q13 0 33 -4l7 4q238 -28 328 -62q40 -24 40 -28v-4q0 -7 -7 -7q-19 0 -108 11h-83q-106 -11 -134 -18v3q-18 -7 -65 -18l-7 4q-56 -22 -62 -22v4q-214 -91 -306 -91q-105 0 -105 105zM29 137q0 49 79 72h29q29 0 69 -14 q6 3 14 3q99 -39 278 -72q41 -3 94 -3h50q9 0 15 3q3 0 3 -3q27 0 123 29q7 -2 7 -8q-53 -64 -155 -93q-110 -40 -159 -40h-10q-4 0 -4 3q-25 -10 -87 -14l-7 4q-7 0 -7 -4q-47 4 -47 7q-7 -3 -11 -3q-3 0 -3 3l-18 -3l-22 3l-7 -3q-147 17 -188 50q-36 37 -36 83zM69 718v4 q1 7 7 7h11l21 -4q4 0 4 4l94 -11h14q5 0 11 11l-4 7l8 15l-4 7q7 8 22 144q10 31 57 289q11 29 15 29q7 0 11 -29q-8 -16 -8 -58v-97q0 -8 -3 -15q3 -6 3 -14v-69q0 -15 4 -39q-4 -7 -4 -11q8 -12 8 -18h-4q16 -123 22 -123v-4q57 19 205 80q54 11 83 11q50 0 109 -54 l7 -26v-43q-23 -50 -72 -76q-30 -14 -105 -32v3q-16 -7 -58 -7h-47q-61 7 -68 7h-18l-7 4v-4q46 -164 46 -231q4 0 4 -3l-4 -22l4 -7q-20 -98 -83 -98q0 -3 -4 -3q-86 23 -86 54q-28 23 -43 202q3 6 3 14q0 9 -3 15q3 6 3 14q0 3 -3 22l7 4l-4 7v3q0 4 4 4l-7 14q4 46 7 51 q-128 40 -155 72z" />
<glyph unicode="F" horiz-adv-x="880" d="M0 1326v33q0 55 58 77q4 0 52 10q61 -2 234 -68l52 -29q3 0 3 3q78 -19 91 -26l6 3q66 -19 123 -19q153 13 256 45q26 13 85 36l3 -6q-72 -74 -243 -127q-161 -55 -347 -55v3q-3 0 -3 -3l-17 3h-9q-11 0 -17 -3q-200 24 -288 78q-25 21 -39 45zM42 837v3q1 6 7 6 q118 -29 152 -29h62l16 3q6 56 6 91v20q0 11 -3 29q0 3 3 3l-9 71q3 7 3 10q-6 0 -16 75q-4 0 -13 39l9 6h4q52 -70 87 -318h-3q3 -5 3 -13q194 62 217 62q21 0 43 3q34 0 84 -45q16 -31 16 -52q0 -65 -146 -97l-42 -7q-3 0 -3 3q-49 -6 -85 -6l-6 3q-6 -3 -10 -3q-9 3 -9 6 q-4 0 -4 -3q-22 7 -39 7h-6v-46q0 -42 -7 -58q4 -6 4 -13q0 -4 -4 -10q0 -3 4 -3q-7 -75 -20 -162q-5 -8 -22 -133q-13 -35 -20 -84q-43 -192 -107 -192l-23 -3q-77 0 -94 97q-3 40 -3 42q2 20 7 20l-4 16v3q33 135 101 266q39 89 71 175q-3 7 -3 10q10 11 26 97v4 q-103 20 -224 107z" />
<glyph unicode="G" horiz-adv-x="1063" d="M0 582v65q1 64 8 64q0 4 -4 4q44 241 91 314q61 118 204 253q160 122 321 151q64 5 72 8q72 0 132 -61q0 -8 19 -34q0 -75 -37 -98q-23 -37 -152 -98q-328 -112 -389 -235q-106 -165 -106 -382q26 -242 45 -242q45 -115 114 -159q35 -33 83 -49l7 4q19 -8 61 -11 q112 11 159 37q108 78 147 224l15 60l-3 8q6 64 11 64l-4 19v41q-9 11 -11 46l7 4q15 0 31 -61q0 -4 -4 -4l7 -34q0 -3 -3 -3l3 -19v-50q0 -137 -56 -234q-68 -116 -167 -148q0 -9 -90 -26l-19 4h-46q-27 0 -41 7l-8 -3q-68 12 -140 56q-111 89 -140 152q-68 74 -106 257 q0 25 -11 109zM352 734l7 3h4q39 0 53 -11l8 4l41 -11q7 3 15 3q9 0 15 -3l23 3l8 -3q97 7 238 105q71 53 144 87l19 -3h37q68 -21 68 -61q8 0 8 -26q0 -56 -79 -118q0 -10 -99 -45q-49 -18 -132 -30h-132q-157 22 -193 60q-53 26 -53 46z" />
<glyph unicode="H" horiz-adv-x="1190" d="M0 765v4l4 7l156 -52q57 -8 71 -15l4 7q-11 83 -26 112l4 8q-19 94 -53 224q-22 118 -22 160q0 157 97 205q27 4 30 4q72 0 93 -67q22 -25 41 -179q-3 -7 -3 -15t3 -15q-3 -20 -3 -34q3 -26 3 -29h-3q0 -4 3 -4q0 -8 -3 -8q5 -85 7 -89l-4 -23v-37q0 -51 -11 -220 q182 22 243 63q41 0 186 101q37 206 116 392q80 171 112 172q0 -4 4 -4q-75 -167 -109 -336l4 -7q-14 0 -19 -150h4q80 34 93 34h38q52 0 86 -75q7 -16 7 -52q-4 -27 -45 -78q-55 -54 -115 -79q-41 -21 -41 -26q6 0 22 -93q11 -11 30 -93q32 -72 71 -198q33 -96 41 -153v-26 q0 -88 -86 -101h-19q-44 7 -67 26q-97 86 -97 142q-21 26 -48 175q-4 72 -12 86q0 4 4 4l-4 45v149q-119 -19 -238 -26q-168 3 -168 15h-4q-34 -205 -86 -373l-75 -228l-11 -8h-4q-7 0 -7 8q60 275 60 440v4q0 4 3 4l-3 7v37q0 4 3 4q-10 138 -22 138q-49 12 -160 71 q-30 4 -75 45z" />
<glyph unicode="I" horiz-adv-x="714" d="M0 1327v33q0 39 69 64q0 7 43 8h7q77 0 213 -80q50 -17 50 -25q7 4 11 4q11 -8 69 -18q102 0 230 61l4 -7q-33 -65 -198 -123q-43 -21 -260 -36h-4l-7 4q-3 0 -3 -4q-188 12 -217 83q-6 0 -7 36zM47 7q53 88 180 148q137 58 213 58h36q139 0 180 -94q4 -6 4 -18 q0 -64 -83 -94h-7q-4 0 -4 4l-18 -4q-59 0 -173 51q-50 14 -79 14q-117 0 -235 -72h-7q-7 0 -7 7zM234 999q10 83 33 115q27 33 54 44h14q67 0 87 -58q14 -15 22 -90q7 0 7 -80q0 -3 -4 -10q0 -4 4 -4q-5 -69 -11 -79q0 -4 4 -4q-18 -138 -55 -274h-3l3 -7q-6 -8 -25 -83 q-39 -133 -61 -177q-15 -22 -33 -72h-7q-7 0 -7 7q11 43 11 98h3q0 3 -3 3q6 26 11 126l-4 8q4 14 4 25q0 3 -4 3l4 22q0 125 -11 173q0 4 3 4q-10 54 -10 94v10q-22 98 -22 202q-4 0 -4 4z" />
<glyph unicode="J" horiz-adv-x="880" d="M0 335v52q4 65 40 127q15 65 124 142q51 36 102 37h11q60 0 84 -59q4 -19 4 -36v-18q0 -58 -66 -128q-84 -88 -84 -91q-22 -52 -22 -84v-7q0 -93 99 -117h14q74 0 139 77q50 59 91 200q16 72 22 81v43l7 11q0 15 -3 15q3 17 7 127h3l-3 8v58q1 18 7 18l-4 8v7q0 4 4 4 l-4 7v7q0 15 4 29q-4 15 -4 26q0 7 4 7l-4 26v36q0 12 4 18q-4 48 -18 110l7 3q37 -45 55 -299h-4l4 -7q0 -34 7 -95h-3l3 -7v-22q0 -18 -7 -18l7 -15q-2 -22 -7 -22q0 -3 4 -3q-8 -133 -15 -172q4 -7 4 -11l-8 -3l4 -8q-37 -176 -84 -266q-43 -75 -102 -102 q-47 -18 -95 -29h-44q-118 19 -142 44q-76 37 -124 171q-18 72 -18 120zM18 1335v14q0 57 99 84q17 4 47 4h15q10 0 22 -8l21 4q0 -5 51 -22q104 -55 124 -73l110 -51q113 -36 171 -36h29q14 0 33 3l8 -3q81 11 178 40q107 38 153 73l4 -8q-27 -44 -95 -83q-85 -54 -204 -92 q-119 -36 -252 -51v4q-18 -7 -65 -7q-13 0 -33 3q-7 -3 -11 -3q-176 22 -252 51q-153 51 -153 157z" />
<glyph unicode="K" horiz-adv-x="994" d="M-78 537v4q91 61 216 123q27 19 27 23q-15 158 -31 228h4q-50 255 -54 316l4 16q-4 27 -4 30q0 95 66 151q22 15 50 15q83 0 112 -135q3 -51 15 -81l-4 -7q8 -45 12 -101q0 -4 -4 -4l4 -19v-89q0 -8 4 -15l-4 -8l4 -23q0 -4 -4 -11q0 -8 4 -8q-4 -39 -4 -58v-73 q41 34 146 158q78 120 97 170q136 297 224 297q0 3 3 3h12q74 0 96 -69v-58q-10 -83 -131 -247q-52 -65 -127 -139q-205 -179 -328 -231q-11 0 -23 -104q0 -7 -43 -154l4 -8l-31 -77q0 -49 -165 -332l-35 -35h-4v19q118 225 123 367q16 115 16 127l-4 20v92h-4 q-111 -50 -204 -73h-35zM416 629q5 24 11 24h4q36 -108 124 -243q15 -37 123 -151q85 -92 181 -150q153 -78 309 -197q81 -85 81 -127l-4 -8l4 -8q0 -84 -96 -104q-167 0 -398 262q-131 162 -208 328q-55 99 -116 297q0 10 -15 77z" />
<glyph unicode="L" horiz-adv-x="830" d="M0 138v4q1 7 7 7q0 -13 135 -33l37 -4q26 4 41 4q4 0 11 -4q69 7 138 30q8 -4 11 -4q6 9 68 30q190 93 231 93h41q82 -19 82 -82q0 -106 -201 -160q-54 -19 -109 -19h-89q-98 0 -239 45q-157 70 -164 93zM78 1302q0 97 82 130q96 0 146 -97q3 -18 11 -18q78 -219 78 -302 l-3 -15q7 -36 7 -53q0 -19 -4 -33q4 -33 4 -56v-67q-22 -208 -78 -418q-62 -179 -86 -179q-7 0 -7 7q29 47 63 291v56q0 9 -4 15q4 7 4 11q0 6 -4 53l4 7q-7 19 -30 161q-9 8 -30 93q-18 53 -71 160q-78 178 -78 194z" />
<glyph unicode="M" horiz-adv-x="1412" d="M11 1251v11q0 111 82 142q7 4 15 4q127 0 195 -304q11 -28 34 -134l-4 -8q16 -34 23 -240q-13 -243 -27 -243v-4l4 -7q-34 -223 -112 -390q-34 -62 -68 -93h-11v11q40 53 90 258q11 63 19 128q0 3 -4 3l4 23q0 34 -4 131l-4 7l4 8q-51 239 -109 344q-127 272 -127 353z M397 1101v7h3q82 0 255 -210h4q50 71 135 296q62 146 120 146q0 4 3 4h8q4 0 4 -4q7 4 11 4q71 -33 71 -90h-4l4 -7v-26q0 -156 -180 -341q-48 -52 -112 -90v-4q25 -38 52 -138h-4l15 -79l-3 -8q3 -20 3 -30q-20 -81 -44 -101q-35 -26 -72 -26q-34 0 -71 68q-13 0 -26 213 v15h-11q-98 -51 -143 -56l-3 7v8q1 5 131 105q15 11 15 18q-32 165 -94 240q-16 27 -67 79zM970 715v49q0 19 7 45l-4 7q12 90 23 135q-4 7 -4 11q56 214 105 315q60 153 90 153q0 -3 4 -3q-12 -12 -94 -285q-26 -128 -26 -169l4 -7q-8 -46 -8 -112q8 -35 8 -42h-4l4 -7v-26 q0 -25 7 -53l-4 -19l8 -14q-4 -8 -4 -12q7 0 23 -90q41 -156 82 -213q14 -41 116 -176q22 -32 79 -97q96 -115 108 -195q4 0 4 -4v-4q0 -96 -79 -120q0 -3 -37 -7q-59 4 -146 86q-74 88 -98 150q-6 0 -26 67q-13 15 -75 195q-30 109 -33 146q3 0 3 4q-8 0 -15 41q4 0 4 4 q-7 0 -7 11l3 8q-7 16 -11 56h4q-11 58 -11 172z" />
<glyph unicode="N" horiz-adv-x="1228" d="M3 126v7q0 145 154 364q82 185 82 225q34 108 34 176q0 107 -11 162h4q-8 10 -19 105q-6 6 -38 135q-35 88 -56 124q0 5 11 11q51 -28 147 -278q0 -2 41 -139q0 -3 -4 -3q8 -15 19 -53q0 -4 -4 -4q23 -139 23 -180v-41l-4 -22q4 -7 4 -19v-11l-4 -23q0 -4 4 -4 q-5 -56 -8 -63l4 -8q-4 -69 -8 -71l4 -8q-26 -157 -52 -244q-44 -111 -79 -176q-70 -101 -143 -101h-11q-75 28 -75 75q-9 0 -15 64zM431 940v26q11 83 60 94l18 3q194 0 342 -649q30 -96 37 -108q-3 -8 -3 -12h-8q-72 111 -116 211q-25 56 -135 180q-25 1 -169 168 q-20 35 -26 87zM821 865q0 3 4 3l-4 38v30q0 8 4 15l-4 7q3 34 11 34l-4 8v3q0 163 98 338q76 94 120 94q106 0 116 -131q0 -68 -71 -248q-53 -134 -79 -296q0 -3 -19 -154q4 -6 4 -19q0 -17 -4 -22q0 -394 323 -736q0 -5 -11 -11h-4q-96 61 -229 240q-161 272 -161 326 q-22 35 -45 166q-6 15 -19 67l4 8l-15 86v4q4 6 4 15q-9 0 -19 135z" />
<glyph unicode="O" horiz-adv-x="1025" d="M0 609q4 7 4 15v4q0 9 -4 15l4 8q-4 26 -4 41v16q1 7 8 7l-4 8q0 234 155 458q104 133 185 174q0 15 137 68q7 0 60 11q117 -20 117 -94q4 0 4 -8q0 -91 -170 -193q-101 -73 -125 -87q-137 -151 -170 -295q-12 -57 -19 -129q-4 0 -4 -4l4 -7l-4 -8l4 -7l-4 -27l4 -15 l-4 -8l4 -7q-4 -7 -4 -15l4 -8q-4 -6 -4 -15q11 -55 11 -60l-3 -8l37 -144q5 0 19 -49q67 -133 193 -178q53 -23 110 -23q30 0 102 31l4 -8q-54 -68 -151 -68h-34q-107 9 -246 117q-78 70 -140 182q-47 88 -65 257zM609 288v41q0 50 136 208q63 84 84 254q0 41 7 41 q-7 16 -7 23q0 4 3 4q-7 73 -34 140q-32 71 -98 148q1 7 8 7q67 -23 102 -91q38 -23 91 -185q30 -85 45 -261q0 -302 -182 -420l-45 -4q-77 0 -110 95z" />
<glyph unicode="P" horiz-adv-x="983" d="M0 134l19 81q44 102 107 226q84 163 123 334q0 26 7 34q7 131 7 170l-3 15q3 7 3 11q-6 115 -14 115q0 4 3 4q-25 151 -55 212q-30 83 -30 92l7 4h4q51 -53 78 -152q17 -19 37 -82l-4 -7q37 -81 67 -353q-4 -7 -4 -11q4 -7 4 -11l-4 -7q8 -19 8 -26q0 -4 -4 -4 q0 -4 4 -11q-4 -50 -4 -71l4 -7q-8 -19 -8 -85v-45q0 -8 -3 -15q0 -3 3 -3q-22 -204 -55 -312q-74 -223 -149 -223q0 -5 -33 -7q-67 0 -100 82q-11 16 -15 52zM300 1406v4q7 20 108 26l22 -4h52q83 0 175 -30q80 -17 193 -118q0 -8 48 -60q48 -102 48 -170l-4 -8l4 -7 q0 -105 -93 -223q-157 -167 -304 -167q-77 14 -108 41q-18 44 -18 52v19q0 73 115 133q192 65 234 163q22 49 22 71q0 119 -141 200q-98 45 -186 59q-52 15 -81 15h-60z" />
<glyph unicode="Q" horiz-adv-x="1047" d="M19 578l4 34l-4 8q19 142 49 225q102 247 260 354h7q8 -1 8 -7v-12q-61 -50 -87 -94q-63 -94 -90 -199q0 -4 4 -4l-12 -68q0 -4 4 -4l-4 -18v-8q0 -196 136 -403q26 -71 26 -97q0 -105 -87 -132h-37q-63 0 -132 154q-45 126 -45 271zM222 70q0 8 11 8q73 -30 95 -30h109 q74 23 86 33q12 0 76 53q-23 96 -23 158v11q4 117 30 117h4v-49q0 -95 37 -180h4q91 107 139 334l-3 8q11 76 11 120q0 112 -105 309l-106 124q-188 152 -188 203q-4 12 -4 46q0 53 83 97h57q101 -24 161 -90q11 0 87 -90q125 -183 150 -350q15 -67 19 -132q-4 -26 -7 -26 l3 -8v-41q0 -4 -3 -4q0 -4 3 -4q-3 -20 -3 -30q3 -7 3 -11q-6 0 -15 -79q-4 0 -7 -15l4 -8q0 -90 -106 -297q-72 -91 -113 -132v-3q41 -53 151 -98q147 -64 162 -76q75 -55 75 -116v-8q-22 -64 -60 -64q0 -3 -30 -11q-171 0 -335 218q-23 43 -42 91h-3q-116 -64 -192 -64 h-27q-119 0 -188 86z" />
<glyph unicode="R" horiz-adv-x="1054" d="M-6 1187v16q0 71 49 105q144 129 382 129q113 0 253 -68q66 -26 166 -144q45 -52 64 -166q0 -4 -3 -11l3 -23q0 -4 -3 -4q0 -4 3 -4q-31 -129 -98 -196q-89 -95 -136 -113q-46 -42 -72 -42q-15 6 -15 11v4q77 54 132 106q72 88 87 178q0 155 -136 207q-69 23 -109 23h-19 l-23 -4q-4 0 -4 4q-59 0 -192 -49q-9 0 -125 -42q-36 -11 -83 -15q-74 17 -102 53q-19 34 -19 45zM20 103v27q7 68 91 196q155 225 155 287q4 0 8 12q-65 32 -216 56h-19v12q20 3 23 3v-3q23 7 98 7q4 0 4 -4l8 4q35 0 117 -23v4q11 44 30 178q-4 6 -4 15v15q0 4 4 4 q-4 8 -8 34q0 4 4 4q-15 120 -38 120v4l8 4h7q32 -26 57 -106l-4 -7q46 -162 46 -257v-12q0 -8 3 -15q-3 -6 -3 -15q97 -39 143 -64q138 -74 276 -200q182 -182 242 -333q49 -136 49 -219v-19q0 -111 -98 -132q-102 0 -155 162q-34 100 -61 242q-6 0 -37 95 q-55 108 -102 170q-138 169 -204 192q-39 22 -50 31h-3l-4 -19l4 -23q-46 -231 -136 -412q-88 -140 -151 -140h-12q-30 3 -56 38q-16 39 -16 87z" />
<glyph unicode="S" horiz-adv-x="846" d="M0 174v4q1 7 7 7h8q134 -115 307 -115q113 15 171 49q78 42 126 151q12 14 18 78q0 187 -181 245q-71 0 -156 -48q-39 -12 -44 -12l-8 4q-12 -7 -22 -7v3q-12 -7 -22 -7q-43 8 -67 30q-28 31 -30 66q0 58 93 141q71 57 196 78h4q7 -4 11 -4q33 4 41 4v-4q4 0 4 4 q96 -8 203 -85q93 -68 134 -200l22 -126q-29 -174 -44 -174q-6 -45 -104 -152q-96 -81 -208 -100h-7q-4 0 -4 3q-13 -7 -29 -7h-45q-104 0 -218 52q-87 40 -123 85zM7 1100q0 139 137 256q106 78 197 78q0 3 15 3h44q106 0 208 -66q77 -46 122 -148q0 -40 7 -45v-7 q-8 -104 -66 -104l-19 -4q-52 0 -126 63q-53 73 -122 119q-48 11 -74 11q-165 0 -234 -182q-14 -46 -14 -107q0 -48 48 -104v-7q-45 0 -89 89q-34 67 -34 155z" />
<glyph unicode="T" horiz-adv-x="880" d="M0 1350l7 4l-3 7q23 68 74 68v3q111 0 257 -110q120 -71 178 -71l64 -8q137 0 246 36q97 38 192 100l4 -7v-7q-15 -32 -125 -97q-78 -54 -306 -117l-7 3l-93 -17q-3 0 -3 3q-27 -7 -50 -7h-25q-8 0 -15 -4q-6 4 -10 4t-4 -4l-18 4h-39q-324 46 -324 217zM246 132 q0 103 125 285q149 238 149 445l-3 14q3 7 3 15q0 10 -7 57h4q-3 8 -7 46q0 4 3 4q-9 74 -14 89l7 3h4q14 -10 24 -39q0 -3 -3 -3q64 -172 64 -385v-64q0 -8 -4 -15q0 -3 4 -3q-2 -25 -7 -25l3 -7q-10 -161 -42 -282q-56 -200 -114 -246q-39 -17 -57 -21q-132 17 -132 132z " />
<glyph unicode="U" horiz-adv-x="967" d="M0 876l4 22v8q0 74 7 96l-4 7q19 130 67 242l37 67q21 49 89 96q2 0 45 15h30q81 -15 81 -100v-19q0 -42 -55 -171q-30 -92 -41 -92v-12q-26 -71 -48 -200q-5 0 -15 -89q-4 0 -4 -4v-22l-4 -22q4 -7 4 -15q-7 0 -11 -97q4 -61 11 -122l-4 -8q56 -186 89 -252 q35 -66 127 -156q18 -5 55 -44q-7 -4 -11 -4q-144 49 -245 204q-69 91 -85 149q-9 0 -60 133q-3 7 -3 15q3 0 3 4q-28 36 -52 219q0 3 4 3l-7 75h3l-3 7v48q0 13 -4 19zM412 215v26q18 74 89 130q153 148 193 234q115 218 115 367v93q0 32 -7 48q0 4 3 4q0 61 -66 308h3 q34 -30 93 -208q22 -64 48 -267h-3l3 -7v-49q0 -8 -3 -14q7 -13 7 -23l-4 -7q4 -7 4 -11l-4 -8q0 -3 4 -3l-4 -19v-18q0 -44 -7 -60q0 -4 4 -4q-22 -150 -49 -215q-49 -144 -111 -234q-112 -148 -219 -148h-4q-85 28 -85 85z" />
<glyph unicode="V" horiz-adv-x="1149" d="M-73 1327q11 74 67 74q50 -6 52 -15l8 4q61 -27 141 -104q91 -94 120 -153q99 -125 160 -302q51 -127 71 -328l-4 -18v-71q0 -20 -11 -23q-7 0 -19 97q-25 112 -82 228q-26 52 -164 205q-156 133 -253 234q-86 100 -86 172zM572 294v53q0 84 7 104q0 4 -4 4q8 46 8 115 l11 34l-4 7q34 174 94 336q0 10 26 70q21 37 33 79q10 5 71 130q128 209 227 209h12q39 0 70 -45q19 -20 19 -104q-5 0 -19 -56q0 -5 -70 -119q-152 -182 -246 -340l-71 -137q-116 -292 -116 -451q0 -33 4 -179l-8 -4q-19 0 -41 216l4 8q-7 29 -7 70z" />
<glyph unicode="W" horiz-adv-x="1302" d="M-80 1334q15 91 91 91h37q120 -60 194 -241q62 -150 109 -380l-3 -7q11 -37 22 -106h-4q15 -84 22 -212l-4 -8l7 -62q-2 -14 -7 -14l4 -19l-4 -18l7 -22l-3 -7q0 -4 3 -4q-9 -146 -18 -146q0 -4 4 -4q-18 -175 -37 -175q-7 0 -7 11q0 27 11 183l-4 18l4 18l-11 125 q4 0 4 3q-7 0 -22 99q-15 41 -19 66q4 7 4 11q-8 0 -55 157q-67 154 -248 420q-77 126 -77 223zM381 1060q0 7 10 7q40 0 187 -109h4q79 135 149 135q0 3 4 3q68 -21 73 -40q7 -13 7 -29v-29q0 -68 -65 -146q-48 -63 -48 -74q77 -171 77 -310q0 -67 -44 -143l-37 -29h-29 q-42 15 -66 44q-15 17 -21 99l3 7q0 4 -3 4q10 158 14 182q-4 6 -4 19v7l4 7h-4q-45 -52 -102 -157l-62 -190h-4l-11 22q4 30 8 36l-4 8q0 68 66 347l7 4l-4 7q22 67 55 146q-18 38 -160 172zM775 234l4 7l-4 26q4 29 11 40l-3 7q2 32 11 41l-4 7q55 224 128 402 q78 181 204 391q35 41 161 223l66 55h4q7 -1 7 -8v-3q-110 -137 -186 -296l-52 -117q4 -7 4 -15l-25 -47l3 -8l-11 -25q4 0 4 -4l-11 -7l4 -8q-20 -87 -26 -87q0 -4 4 -4q-26 -79 -48 -285v-66q0 -171 11 -201l-4 -7q4 -7 4 -15q0 -3 -4 -3l4 -19v-54q0 -104 -73 -143 q-26 -4 -26 -7q-89 0 -117 62q-40 92 -40 168z" />
<glyph unicode="X" horiz-adv-x="1117" d="M0 73v22q0 100 256 249q132 112 157 165q46 37 99 212l-3 7q1 7 7 7q8 -8 11 -47q0 -88 -62 -278q-82 -186 -216 -319q-94 -76 -110 -76q0 -4 -33 -15h-33q-73 18 -73 73zM7 1328q18 92 73 92h33q110 -16 337 -289q119 -170 143 -213q11 -7 51 -87q17 -14 124 -249 q81 -199 143 -534h-4q8 -15 8 -22q-12 -8 -22 -8q-17 36 -44 139q-114 310 -256 509q-86 114 -136 168q-190 183 -358 326q-84 99 -84 128q-5 33 -8 40zM648 918q0 93 106 326q91 136 208 179q6 4 41 8q75 0 91 -48v-40q0 -35 -80 -99q-91 -39 -187 -113q-80 -62 -121 -136 q-41 -84 -51 -88z" />
<glyph unicode="Y" horiz-adv-x="945" d="M-21 1311v4h4q0 4 -4 4q0 75 71 115l37 3q108 0 156 -312q37 -159 111 -323h4q6 2 74 137q58 105 93 149q247 331 409 331q78 -13 78 -56v-26q0 -65 -100 -175q-40 -44 -164 -148q0 -5 -93 -93q0 -4 -52 -56q0 -12 -29 -33q-131 -164 -131 -171q100 -109 160 -145 q58 -39 60 -48q0 -8 -8 -8h-15q-120 55 -223 152h-7q-74 -115 -104 -200q-108 -255 -108 -327q-48 -173 -48 -279q4 -20 4 -33l-8 -4q-5 0 -15 22q0 4 4 4l-7 74q0 115 48 398q56 230 134 427q3 7 3 15q-76 71 -152 171q-66 81 -108 164q-74 136 -74 267z" />
<glyph unicode="Z" horiz-adv-x="970" d="M0 205v4q1 7 7 7h4q49 -51 201 -104l8 3q12 -7 22 -7h75q109 0 353 127q62 32 120 52h33q75 -16 75 -45q7 0 11 -30h3q0 -167 -286 -205q-49 -4 -56 -7q-4 0 -4 4l-19 -4h-40q-215 0 -406 112q-60 26 -101 93zM67 1345q0 75 93 89h30q32 0 235 -101q130 -44 134 -44 q3 0 3 3l56 -11h71q8 0 15 -4q76 8 145 34l93 56l4 -8v-11q-82 -84 -179 -119q-107 -46 -275 -63h-146q-75 11 -167 33q-112 46 -112 146zM78 302v11q0 90 119 186l79 56q6 11 137 108q159 129 272 279q123 200 123 227q9 23 15 23l11 -8q0 -59 -59 -197l-93 -212 q-112 -190 -246 -354q-165 -179 -205 -179q0 -13 -67 -19q-58 0 -86 79z" />
<glyph unicode="[" horiz-adv-x="758" />
<glyph unicode="\" horiz-adv-x="569" />
<glyph unicode="]" horiz-adv-x="758" />
<glyph unicode="^" />
<glyph unicode="_" horiz-adv-x="1024" d="M0 -100h1024v-60h-1024v60z" />
<glyph unicode="`" horiz-adv-x="1024" d="M212 1363q0 31 20.5 51t53.5 20q20 0 40.5 -12t55.5 -47l291 -296h-69l-330 202q-31 20 -46.5 40t-15.5 42z" />
<glyph unicode="a" horiz-adv-x="1133" d="M-48 639q20 35 42 57q49 18 91 18h11q72 -11 72 -15l8 4q29 -19 57 -19q26 198 53 307q52 103 117 103q76 0 99 -49q27 -47 27 -110l-4 -8l4 -8q-35 -182 -103 -318v-12q107 -41 178 -53h50q7 -1 7 -7q0 -21 -186 -65l-7 4q-17 -7 -84 -11q-6 3 -15 3q-15 0 -34 -45 l-98 -160q-76 -135 -183 -269l-7 -4q-8 0 -8 8q91 205 137 383l23 95q-247 48 -247 171zM248 1314v26q0 64 102 91h19q97 -3 273 -121q132 -80 160 -80q77 -33 205 -45l22 7q4 0 4 -3l87 19l4 -8q-47 -53 -212 -91q-37 0 -69 -8q-20 4 -34 4h-38q-12 0 -19 -4 q-149 0 -383 84q-121 64 -121 129zM639 862q0 113 57 141q21 19 37 19h19q46 0 88 -69q-4 -7 -4 -11q26 0 53 -186q0 -37 11 -57l-3 -19q6 -17 11 -41l-4 -8q66 -338 133 -455q-4 -8 -4 -12q6 0 38 -68q72 -132 163 -243q23 -37 84 -94q0 -12 11 -12v-7q0 -8 -11 -8 q-29 5 -220 201q-128 138 -179 220q-137 204 -201 376q-79 195 -79 333z" />
<glyph unicode="b" horiz-adv-x="967" d="M0 1330q2 24 44 67q27 23 129 40q20 0 51 3q211 0 390 -104q149 -117 177 -193q8 0 22 -55l-4 -6l7 -22q0 -3 -3 -3l3 -15q0 -7 -3 -13q3 -6 3 -9q0 -139 -172 -257q-105 -52 -159 -52h-3q-8 0 -8 6v3q125 71 155 95q92 83 92 175q3 10 3 39q-15 82 -55 114 q-80 59 -169 92q-7 0 -7 6l-8 -3q-79 6 -95 9q-4 0 -4 -3l-18 3h-4q-96 -6 -239 -9q-98 0 -121 70zM162 953q14 200 103 233q37 15 59 15q62 -51 62 -116q4 0 4 -3q0 -4 -4 -4l4 -15q0 -16 -4 -52q0 -3 4 -3l-4 -15v-22q0 -6 -7 -6l3 -6q-7 -57 -14 -83q0 -3 3 -3 q-18 -95 -22 -159q-6 -19 -11 -19l4 -6v-3q0 -3 -4 -3l4 -6v-6l-4 -18q0 -3 4 -3l-7 -50l3 -6l-11 -58l4 -6l-4 -6l4 -6q-7 -13 -7 -19q3 -6 3 -9l-3 -6q3 -6 3 -9q-7 -15 -11 -15l4 -7q0 -3 -4 -3l4 -15v-9q0 -7 -4 -12l4 -7l-4 -12l4 -6l-4 -6q0 -3 4 -3q-4 -28 -7 -28 l3 -15v-12q0 -16 -7 -16q4 -5 4 -9l-4 -6l4 -6q-8 -74 -19 -74h-7q-16 0 -48 184q-4 0 -7 25l3 6q-11 8 -18 80h4q-18 52 -37 177q4 6 4 13q0 4 -8 27h4q-15 53 -19 123q0 3 4 3l-4 15q0 33 -3 86zM379 77v18q0 86 213 181q182 101 239 226q22 49 22 111q-15 66 -59 107 l-66 55l7 3h15q30 -1 99 -61q54 -65 70 -129q-3 -6 -3 -9q7 -20 7 -28v-24q0 -141 -110 -294q-32 -57 -177 -190q-73 -39 -118 -43h-22q-57 0 -88 21q-17 0 -29 56z" />
<glyph unicode="c" horiz-adv-x="763" d="M0 615q8 25 26 163q65 195 136 313q40 69 125 170q16 10 94 83q138 91 212 91q105 0 105 -65q8 0 8 -18v-4q0 -9 -4 -15l4 -8q-3 -11 -26 -49q-1 -14 -129 -121q-29 -5 -238 -207q-117 -160 -124 -219q-64 -146 -64 -280q0 -74 64 -204q80 -125 192 -169q38 -16 129 -27 q72 0 139 38h8v-11q-71 -76 -189 -76h-49q-32 0 -45 11l-8 -3q-181 79 -189 117q-18 4 -83 102q-90 180 -90 305h4l-4 8v41q0 14 -4 34z" />
<glyph unicode="d" horiz-adv-x="1156" d="M0 1102q0 143 238 260q167 75 264 75q4 0 4 -4l26 4h8q155 0 268 -60q12 0 59 -33q64 -23 138 -149q18 -11 33 -60q3 0 15 -19h-3q17 -50 33 -160q0 -3 -4 -3l4 -26v-34q0 -8 -4 -15l4 -7q-22 -135 -71 -231q-21 -79 -230 -309q-7 0 -97 -89q-73 -52 -160 -130l-183 -112 h-7q-5 0 -11 11q45 40 145 104q200 182 205 194q66 60 141 167q98 161 119 257q11 41 22 153q0 185 -126 283q-83 52 -190 74l-7 -4l-19 4q-149 -19 -283 -112q-159 -119 -197 -119q-14 -3 -41 -3h-22q-71 30 -71 93zM320 409v4q0 8 4 15l-4 7l4 8q0 4 -4 4q0 110 78 491 q4 11 8 11l-4 7l26 116l-4 7q0 9 19 11l4 -7v-7q0 -29 -4 -53q18 -192 26 -227h-4q56 -301 56 -372l-4 -15q4 -7 4 -11l-4 -7q0 -4 4 -4q0 -111 -82 -160h-30q-30 0 -59 60q-6 11 -22 67q-4 0 -4 3l4 8q-8 26 -8 44z" />
<glyph unicode="e" horiz-adv-x="902" d="M0 1310q15 40 36 54q18 30 119 47l137 22h177q13 0 33 -4l7 4q238 -28 328 -62q40 -24 40 -28v-4q0 -7 -7 -7q-19 0 -108 11h-83q-106 -11 -134 -18v3q-18 -7 -65 -18l-7 4q-56 -22 -62 -22v4q-214 -91 -306 -91q-105 0 -105 105zM29 137q0 49 79 72h29q29 0 69 -14 q6 3 14 3q99 -39 278 -72q41 -3 94 -3h50q9 0 15 3q3 0 3 -3q27 0 123 29q7 -2 7 -8q-53 -64 -155 -93q-110 -40 -159 -40h-10q-4 0 -4 3q-25 -10 -87 -14l-7 4q-7 0 -7 -4q-47 4 -47 7q-7 -3 -11 -3q-3 0 -3 3l-18 -3l-22 3l-7 -3q-147 17 -188 50q-36 37 -36 83zM69 718v4 q1 7 7 7h11l21 -4q4 0 4 4l94 -11h14q5 0 11 11l-4 7l8 15l-4 7q7 8 22 144q10 31 57 289q11 29 15 29q7 0 11 -29q-8 -16 -8 -58v-97q0 -8 -3 -15q3 -6 3 -14v-69q0 -15 4 -39q-4 -7 -4 -11q8 -12 8 -18h-4q16 -123 22 -123v-4q57 19 205 80q54 11 83 11q50 0 109 -54 l7 -26v-43q-23 -50 -72 -76q-30 -14 -105 -32v3q-16 -7 -58 -7h-47q-61 7 -68 7h-18l-7 4v-4q46 -164 46 -231q4 0 4 -3l-4 -22l4 -7q-20 -98 -83 -98q0 -3 -4 -3q-86 23 -86 54q-28 23 -43 202q3 6 3 14q0 9 -3 15q3 6 3 14q0 3 -3 22l7 4l-4 7v3q0 4 4 4l-7 14q4 46 7 51 q-128 40 -155 72z" />
<glyph unicode="f" horiz-adv-x="880" d="M0 1326v33q0 55 58 77q4 0 52 10q61 -2 234 -68l52 -29q3 0 3 3q78 -19 91 -26l6 3q66 -19 123 -19q153 13 256 45q26 13 85 36l3 -6q-72 -74 -243 -127q-161 -55 -347 -55v3q-3 0 -3 -3l-17 3h-9q-11 0 -17 -3q-200 24 -288 78q-25 21 -39 45zM42 837v3q1 6 7 6 q118 -29 152 -29h62l16 3q6 56 6 91v20q0 11 -3 29q0 3 3 3l-9 71q3 7 3 10q-6 0 -16 75q-4 0 -13 39l9 6h4q52 -70 87 -318h-3q3 -5 3 -13q194 62 217 62q21 0 43 3q34 0 84 -45q16 -31 16 -52q0 -65 -146 -97l-42 -7q-3 0 -3 3q-49 -6 -85 -6l-6 3q-6 -3 -10 -3q-9 3 -9 6 q-4 0 -4 -3q-22 7 -39 7h-6v-46q0 -42 -7 -58q4 -6 4 -13q0 -4 -4 -10q0 -3 4 -3q-7 -75 -20 -162q-5 -8 -22 -133q-13 -35 -20 -84q-43 -192 -107 -192l-23 -3q-77 0 -94 97q-3 40 -3 42q2 20 7 20l-4 16v3q33 135 101 266q39 89 71 175q-3 7 -3 10q10 11 26 97v4 q-103 20 -224 107z" />
<glyph unicode="g" horiz-adv-x="1063" d="M0 582v65q1 64 8 64q0 4 -4 4q44 241 91 314q61 118 204 253q160 122 321 151q64 5 72 8q72 0 132 -61q0 -8 19 -34q0 -75 -37 -98q-23 -37 -152 -98q-328 -112 -389 -235q-106 -165 -106 -382q26 -242 45 -242q45 -115 114 -159q35 -33 83 -49l7 4q19 -8 61 -11 q112 11 159 37q108 78 147 224l15 60l-3 8q6 64 11 64l-4 19v41q-9 11 -11 46l7 4q15 0 31 -61q0 -4 -4 -4l7 -34q0 -3 -3 -3l3 -19v-50q0 -137 -56 -234q-68 -116 -167 -148q0 -9 -90 -26l-19 4h-46q-27 0 -41 7l-8 -3q-68 12 -140 56q-111 89 -140 152q-68 74 -106 257 q0 25 -11 109zM352 734l7 3h4q39 0 53 -11l8 4l41 -11q7 3 15 3q9 0 15 -3l23 3l8 -3q97 7 238 105q71 53 144 87l19 -3h37q68 -21 68 -61q8 0 8 -26q0 -56 -79 -118q0 -10 -99 -45q-49 -18 -132 -30h-132q-157 22 -193 60q-53 26 -53 46z" />
<glyph unicode="h" horiz-adv-x="1190" d="M0 765v4l4 7l156 -52q57 -8 71 -15l4 7q-11 83 -26 112l4 8q-19 94 -53 224q-22 118 -22 160q0 157 97 205q27 4 30 4q72 0 93 -67q22 -25 41 -179q-3 -7 -3 -15t3 -15q-3 -20 -3 -34q3 -26 3 -29h-3q0 -4 3 -4q0 -8 -3 -8q5 -85 7 -89l-4 -23v-37q0 -51 -11 -220 q182 22 243 63q41 0 186 101q37 206 116 392q80 171 112 172q0 -4 4 -4q-75 -167 -109 -336l4 -7q-14 0 -19 -150h4q80 34 93 34h38q52 0 86 -75q7 -16 7 -52q-4 -27 -45 -78q-55 -54 -115 -79q-41 -21 -41 -26q6 0 22 -93q11 -11 30 -93q32 -72 71 -198q33 -96 41 -153v-26 q0 -88 -86 -101h-19q-44 7 -67 26q-97 86 -97 142q-21 26 -48 175q-4 72 -12 86q0 4 4 4l-4 45v149q-119 -19 -238 -26q-168 3 -168 15h-4q-34 -205 -86 -373l-75 -228l-11 -8h-4q-7 0 -7 8q60 275 60 440v4q0 4 3 4l-3 7v37q0 4 3 4q-10 138 -22 138q-49 12 -160 71 q-30 4 -75 45z" />
<glyph unicode="i" horiz-adv-x="714" d="M0 1327v33q0 39 69 64q0 7 43 8h7q77 0 213 -80q50 -17 50 -25q7 4 11 4q11 -8 69 -18q102 0 230 61l4 -7q-33 -65 -198 -123q-43 -21 -260 -36h-4l-7 4q-3 0 -3 -4q-188 12 -217 83q-6 0 -7 36zM47 7q53 88 180 148q137 58 213 58h36q139 0 180 -94q4 -6 4 -18 q0 -64 -83 -94h-7q-4 0 -4 4l-18 -4q-59 0 -173 51q-50 14 -79 14q-117 0 -235 -72h-7q-7 0 -7 7zM234 999q10 83 33 115q27 33 54 44h14q67 0 87 -58q14 -15 22 -90q7 0 7 -80q0 -3 -4 -10q0 -4 4 -4q-5 -69 -11 -79q0 -4 4 -4q-18 -138 -55 -274h-3l3 -7q-6 -8 -25 -83 q-39 -133 -61 -177q-15 -22 -33 -72h-7q-7 0 -7 7q11 43 11 98h3q0 3 -3 3q6 26 11 126l-4 8q4 14 4 25q0 3 -4 3l4 22q0 125 -11 173q0 4 3 4q-10 54 -10 94v10q-22 98 -22 202q-4 0 -4 4z" />
<glyph unicode="j" horiz-adv-x="880" d="M0 335v52q4 65 40 127q15 65 124 142q51 36 102 37h11q60 0 84 -59q4 -19 4 -36v-18q0 -58 -66 -128q-84 -88 -84 -91q-22 -52 -22 -84v-7q0 -93 99 -117h14q74 0 139 77q50 59 91 200q16 72 22 81v43l7 11q0 15 -3 15q3 17 7 127h3l-3 8v58q1 18 7 18l-4 8v7q0 4 4 4 l-4 7v7q0 15 4 29q-4 15 -4 26q0 7 4 7l-4 26v36q0 12 4 18q-4 48 -18 110l7 3q37 -45 55 -299h-4l4 -7q0 -34 7 -95h-3l3 -7v-22q0 -18 -7 -18l7 -15q-2 -22 -7 -22q0 -3 4 -3q-8 -133 -15 -172q4 -7 4 -11l-8 -3l4 -8q-37 -176 -84 -266q-43 -75 -102 -102 q-47 -18 -95 -29h-44q-118 19 -142 44q-76 37 -124 171q-18 72 -18 120zM18 1335v14q0 57 99 84q17 4 47 4h15q10 0 22 -8l21 4q0 -5 51 -22q104 -55 124 -73l110 -51q113 -36 171 -36h29q14 0 33 3l8 -3q81 11 178 40q107 38 153 73l4 -8q-27 -44 -95 -83q-85 -54 -204 -92 q-119 -36 -252 -51v4q-18 -7 -65 -7q-13 0 -33 3q-7 -3 -11 -3q-176 22 -252 51q-153 51 -153 157z" />
<glyph unicode="k" horiz-adv-x="994" d="M-78 537v4q91 61 216 123q27 19 27 23q-15 158 -31 228h4q-50 255 -54 316l4 16q-4 27 -4 30q0 95 66 151q22 15 50 15q83 0 112 -135q3 -51 15 -81l-4 -7q8 -45 12 -101q0 -4 -4 -4l4 -19v-89q0 -8 4 -15l-4 -8l4 -23q0 -4 -4 -11q0 -8 4 -8q-4 -39 -4 -58v-73 q41 34 146 158q78 120 97 170q136 297 224 297q0 3 3 3h12q74 0 96 -69v-58q-10 -83 -131 -247q-52 -65 -127 -139q-205 -179 -328 -231q-11 0 -23 -104q0 -7 -43 -154l4 -8l-31 -77q0 -49 -165 -332l-35 -35h-4v19q118 225 123 367q16 115 16 127l-4 20v92h-4 q-111 -50 -204 -73h-35zM416 629q5 24 11 24h4q36 -108 124 -243q15 -37 123 -151q85 -92 181 -150q153 -78 309 -197q81 -85 81 -127l-4 -8l4 -8q0 -84 -96 -104q-167 0 -398 262q-131 162 -208 328q-55 99 -116 297q0 10 -15 77z" />
<glyph unicode="l" horiz-adv-x="830" d="M0 138v4q1 7 7 7q0 -13 135 -33l37 -4q26 4 41 4q4 0 11 -4q69 7 138 30q8 -4 11 -4q6 9 68 30q190 93 231 93h41q82 -19 82 -82q0 -106 -201 -160q-54 -19 -109 -19h-89q-98 0 -239 45q-157 70 -164 93zM78 1302q0 97 82 130q96 0 146 -97q3 -18 11 -18q78 -219 78 -302 l-3 -15q7 -36 7 -53q0 -19 -4 -33q4 -33 4 -56v-67q-22 -208 -78 -418q-62 -179 -86 -179q-7 0 -7 7q29 47 63 291v56q0 9 -4 15q4 7 4 11q0 6 -4 53l4 7q-7 19 -30 161q-9 8 -30 93q-18 53 -71 160q-78 178 -78 194z" />
<glyph unicode="m" horiz-adv-x="1412" d="M11 1251v11q0 111 82 142q7 4 15 4q127 0 195 -304q11 -28 34 -134l-4 -8q16 -34 23 -240q-13 -243 -27 -243v-4l4 -7q-34 -223 -112 -390q-34 -62 -68 -93h-11v11q40 53 90 258q11 63 19 128q0 3 -4 3l4 23q0 34 -4 131l-4 7l4 8q-51 239 -109 344q-127 272 -127 353z M397 1101v7h3q82 0 255 -210h4q50 71 135 296q62 146 120 146q0 4 3 4h8q4 0 4 -4q7 4 11 4q71 -33 71 -90h-4l4 -7v-26q0 -156 -180 -341q-48 -52 -112 -90v-4q25 -38 52 -138h-4l15 -79l-3 -8q3 -20 3 -30q-20 -81 -44 -101q-35 -26 -72 -26q-34 0 -71 68q-13 0 -26 213 v15h-11q-98 -51 -143 -56l-3 7v8q1 5 131 105q15 11 15 18q-32 165 -94 240q-16 27 -67 79zM970 715v49q0 19 7 45l-4 7q12 90 23 135q-4 7 -4 11q56 214 105 315q60 153 90 153q0 -3 4 -3q-12 -12 -94 -285q-26 -128 -26 -169l4 -7q-8 -46 -8 -112q8 -35 8 -42h-4l4 -7v-26 q0 -25 7 -53l-4 -19l8 -14q-4 -8 -4 -12q7 0 23 -90q41 -156 82 -213q14 -41 116 -176q22 -32 79 -97q96 -115 108 -195q4 0 4 -4v-4q0 -96 -79 -120q0 -3 -37 -7q-59 4 -146 86q-74 88 -98 150q-6 0 -26 67q-13 15 -75 195q-30 109 -33 146q3 0 3 4q-8 0 -15 41q4 0 4 4 q-7 0 -7 11l3 8q-7 16 -11 56h4q-11 58 -11 172z" />
<glyph unicode="n" horiz-adv-x="1228" d="M3 126v7q0 145 154 364q82 185 82 225q34 108 34 176q0 107 -11 162h4q-8 10 -19 105q-6 6 -38 135q-35 88 -56 124q0 5 11 11q51 -28 147 -278q0 -2 41 -139q0 -3 -4 -3q8 -15 19 -53q0 -4 -4 -4q23 -139 23 -180v-41l-4 -22q4 -7 4 -19v-11l-4 -23q0 -4 4 -4 q-5 -56 -8 -63l4 -8q-4 -69 -8 -71l4 -8q-26 -157 -52 -244q-44 -111 -79 -176q-70 -101 -143 -101h-11q-75 28 -75 75q-9 0 -15 64zM431 940v26q11 83 60 94l18 3q194 0 342 -649q30 -96 37 -108q-3 -8 -3 -12h-8q-72 111 -116 211q-25 56 -135 180q-25 1 -169 168 q-20 35 -26 87zM821 865q0 3 4 3l-4 38v30q0 8 4 15l-4 7q3 34 11 34l-4 8v3q0 163 98 338q76 94 120 94q106 0 116 -131q0 -68 -71 -248q-53 -134 -79 -296q0 -3 -19 -154q4 -6 4 -19q0 -17 -4 -22q0 -394 323 -736q0 -5 -11 -11h-4q-96 61 -229 240q-161 272 -161 326 q-22 35 -45 166q-6 15 -19 67l4 8l-15 86v4q4 6 4 15q-9 0 -19 135z" />
<glyph unicode="o" horiz-adv-x="1025" d="M0 609q4 7 4 15v4q0 9 -4 15l4 8q-4 26 -4 41v16q1 7 8 7l-4 8q0 234 155 458q104 133 185 174q0 15 137 68q7 0 60 11q117 -20 117 -94q4 0 4 -8q0 -91 -170 -193q-101 -73 -125 -87q-137 -151 -170 -295q-12 -57 -19 -129q-4 0 -4 -4l4 -7l-4 -8l4 -7l-4 -27l4 -15 l-4 -8l4 -7q-4 -7 -4 -15l4 -8q-4 -6 -4 -15q11 -55 11 -60l-3 -8l37 -144q5 0 19 -49q67 -133 193 -178q53 -23 110 -23q30 0 102 31l4 -8q-54 -68 -151 -68h-34q-107 9 -246 117q-78 70 -140 182q-47 88 -65 257zM609 288v41q0 50 136 208q63 84 84 254q0 41 7 41 q-7 16 -7 23q0 4 3 4q-7 73 -34 140q-32 71 -98 148q1 7 8 7q67 -23 102 -91q38 -23 91 -185q30 -85 45 -261q0 -302 -182 -420l-45 -4q-77 0 -110 95z" />
<glyph unicode="p" horiz-adv-x="983" d="M0 134l19 81q44 102 107 226q84 163 123 334q0 26 7 34q7 131 7 170l-3 15q3 7 3 11q-6 115 -14 115q0 4 3 4q-25 151 -55 212q-30 83 -30 92l7 4h4q51 -53 78 -152q17 -19 37 -82l-4 -7q37 -81 67 -353q-4 -7 -4 -11q4 -7 4 -11l-4 -7q8 -19 8 -26q0 -4 -4 -4 q0 -4 4 -11q-4 -50 -4 -71l4 -7q-8 -19 -8 -85v-45q0 -8 -3 -15q0 -3 3 -3q-22 -204 -55 -312q-74 -223 -149 -223q0 -5 -33 -7q-67 0 -100 82q-11 16 -15 52zM300 1406v4q7 20 108 26l22 -4h52q83 0 175 -30q80 -17 193 -118q0 -8 48 -60q48 -102 48 -170l-4 -8l4 -7 q0 -105 -93 -223q-157 -167 -304 -167q-77 14 -108 41q-18 44 -18 52v19q0 73 115 133q192 65 234 163q22 49 22 71q0 119 -141 200q-98 45 -186 59q-52 15 -81 15h-60z" />
<glyph unicode="q" horiz-adv-x="1047" d="M19 578l4 34l-4 8q19 142 49 225q102 247 260 354h7q8 -1 8 -7v-12q-61 -50 -87 -94q-63 -94 -90 -199q0 -4 4 -4l-12 -68q0 -4 4 -4l-4 -18v-8q0 -196 136 -403q26 -71 26 -97q0 -105 -87 -132h-37q-63 0 -132 154q-45 126 -45 271zM222 70q0 8 11 8q73 -30 95 -30h109 q74 23 86 33q12 0 76 53q-23 96 -23 158v11q4 117 30 117h4v-49q0 -95 37 -180h4q91 107 139 334l-3 8q11 76 11 120q0 112 -105 309l-106 124q-188 152 -188 203q-4 12 -4 46q0 53 83 97h57q101 -24 161 -90q11 0 87 -90q125 -183 150 -350q15 -67 19 -132q-4 -26 -7 -26 l3 -8v-41q0 -4 -3 -4q0 -4 3 -4q-3 -20 -3 -30q3 -7 3 -11q-6 0 -15 -79q-4 0 -7 -15l4 -8q0 -90 -106 -297q-72 -91 -113 -132v-3q41 -53 151 -98q147 -64 162 -76q75 -55 75 -116v-8q-22 -64 -60 -64q0 -3 -30 -11q-171 0 -335 218q-23 43 -42 91h-3q-116 -64 -192 -64 h-27q-119 0 -188 86z" />
<glyph unicode="r" horiz-adv-x="1054" d="M-6 1187v16q0 71 49 105q144 129 382 129q113 0 253 -68q66 -26 166 -144q45 -52 64 -166q0 -4 -3 -11l3 -23q0 -4 -3 -4q0 -4 3 -4q-31 -129 -98 -196q-89 -95 -136 -113q-46 -42 -72 -42q-15 6 -15 11v4q77 54 132 106q72 88 87 178q0 155 -136 207q-69 23 -109 23h-19 l-23 -4q-4 0 -4 4q-59 0 -192 -49q-9 0 -125 -42q-36 -11 -83 -15q-74 17 -102 53q-19 34 -19 45zM20 103v27q7 68 91 196q155 225 155 287q4 0 8 12q-65 32 -216 56h-19v12q20 3 23 3v-3q23 7 98 7q4 0 4 -4l8 4q35 0 117 -23v4q11 44 30 178q-4 6 -4 15v15q0 4 4 4 q-4 8 -8 34q0 4 4 4q-15 120 -38 120v4l8 4h7q32 -26 57 -106l-4 -7q46 -162 46 -257v-12q0 -8 3 -15q-3 -6 -3 -15q97 -39 143 -64q138 -74 276 -200q182 -182 242 -333q49 -136 49 -219v-19q0 -111 -98 -132q-102 0 -155 162q-34 100 -61 242q-6 0 -37 95 q-55 108 -102 170q-138 169 -204 192q-39 22 -50 31h-3l-4 -19l4 -23q-46 -231 -136 -412q-88 -140 -151 -140h-12q-30 3 -56 38q-16 39 -16 87z" />
<glyph unicode="s" horiz-adv-x="846" d="M0 174v4q1 7 7 7h8q134 -115 307 -115q113 15 171 49q78 42 126 151q12 14 18 78q0 187 -181 245q-71 0 -156 -48q-39 -12 -44 -12l-8 4q-12 -7 -22 -7v3q-12 -7 -22 -7q-43 8 -67 30q-28 31 -30 66q0 58 93 141q71 57 196 78h4q7 -4 11 -4q33 4 41 4v-4q4 0 4 4 q96 -8 203 -85q93 -68 134 -200l22 -126q-29 -174 -44 -174q-6 -45 -104 -152q-96 -81 -208 -100h-7q-4 0 -4 3q-13 -7 -29 -7h-45q-104 0 -218 52q-87 40 -123 85zM7 1100q0 139 137 256q106 78 197 78q0 3 15 3h44q106 0 208 -66q77 -46 122 -148q0 -40 7 -45v-7 q-8 -104 -66 -104l-19 -4q-52 0 -126 63q-53 73 -122 119q-48 11 -74 11q-165 0 -234 -182q-14 -46 -14 -107q0 -48 48 -104v-7q-45 0 -89 89q-34 67 -34 155z" />
<glyph unicode="t" horiz-adv-x="880" d="M0 1350l7 4l-3 7q23 68 74 68v3q111 0 257 -110q120 -71 178 -71l64 -8q137 0 246 36q97 38 192 100l4 -7v-7q-15 -32 -125 -97q-78 -54 -306 -117l-7 3l-93 -17q-3 0 -3 3q-27 -7 -50 -7h-25q-8 0 -15 -4q-6 4 -10 4t-4 -4l-18 4h-39q-324 46 -324 217zM246 132 q0 103 125 285q149 238 149 445l-3 14q3 7 3 15q0 10 -7 57h4q-3 8 -7 46q0 4 3 4q-9 74 -14 89l7 3h4q14 -10 24 -39q0 -3 -3 -3q64 -172 64 -385v-64q0 -8 -4 -15q0 -3 4 -3q-2 -25 -7 -25l3 -7q-10 -161 -42 -282q-56 -200 -114 -246q-39 -17 -57 -21q-132 17 -132 132z " />
<glyph unicode="u" horiz-adv-x="967" d="M0 876l4 22v8q0 74 7 96l-4 7q19 130 67 242l37 67q21 49 89 96q2 0 45 15h30q81 -15 81 -100v-19q0 -42 -55 -171q-30 -92 -41 -92v-12q-26 -71 -48 -200q-5 0 -15 -89q-4 0 -4 -4v-22l-4 -22q4 -7 4 -15q-7 0 -11 -97q4 -61 11 -122l-4 -8q56 -186 89 -252 q35 -66 127 -156q18 -5 55 -44q-7 -4 -11 -4q-144 49 -245 204q-69 91 -85 149q-9 0 -60 133q-3 7 -3 15q3 0 3 4q-28 36 -52 219q0 3 4 3l-7 75h3l-3 7v48q0 13 -4 19zM412 215v26q18 74 89 130q153 148 193 234q115 218 115 367v93q0 32 -7 48q0 4 3 4q0 61 -66 308h3 q34 -30 93 -208q22 -64 48 -267h-3l3 -7v-49q0 -8 -3 -14q7 -13 7 -23l-4 -7q4 -7 4 -11l-4 -8q0 -3 4 -3l-4 -19v-18q0 -44 -7 -60q0 -4 4 -4q-22 -150 -49 -215q-49 -144 -111 -234q-112 -148 -219 -148h-4q-85 28 -85 85z" />
<glyph unicode="v" horiz-adv-x="1149" d="M-73 1327q11 74 67 74q50 -6 52 -15l8 4q61 -27 141 -104q91 -94 120 -153q99 -125 160 -302q51 -127 71 -328l-4 -18v-71q0 -20 -11 -23q-7 0 -19 97q-25 112 -82 228q-26 52 -164 205q-156 133 -253 234q-86 100 -86 172zM572 294v53q0 84 7 104q0 4 -4 4q8 46 8 115 l11 34l-4 7q34 174 94 336q0 10 26 70q21 37 33 79q10 5 71 130q128 209 227 209h12q39 0 70 -45q19 -20 19 -104q-5 0 -19 -56q0 -5 -70 -119q-152 -182 -246 -340l-71 -137q-116 -292 -116 -451q0 -33 4 -179l-8 -4q-19 0 -41 216l4 8q-7 29 -7 70z" />
<glyph unicode="w" horiz-adv-x="1302" d="M-80 1334q15 91 91 91h37q120 -60 194 -241q62 -150 109 -380l-3 -7q11 -37 22 -106h-4q15 -84 22 -212l-4 -8l7 -62q-2 -14 -7 -14l4 -19l-4 -18l7 -22l-3 -7q0 -4 3 -4q-9 -146 -18 -146q0 -4 4 -4q-18 -175 -37 -175q-7 0 -7 11q0 27 11 183l-4 18l4 18l-11 125 q4 0 4 3q-7 0 -22 99q-15 41 -19 66q4 7 4 11q-8 0 -55 157q-67 154 -248 420q-77 126 -77 223zM381 1060q0 7 10 7q40 0 187 -109h4q79 135 149 135q0 3 4 3q68 -21 73 -40q7 -13 7 -29v-29q0 -68 -65 -146q-48 -63 -48 -74q77 -171 77 -310q0 -67 -44 -143l-37 -29h-29 q-42 15 -66 44q-15 17 -21 99l3 7q0 4 -3 4q10 158 14 182q-4 6 -4 19v7l4 7h-4q-45 -52 -102 -157l-62 -190h-4l-11 22q4 30 8 36l-4 8q0 68 66 347l7 4l-4 7q22 67 55 146q-18 38 -160 172zM775 234l4 7l-4 26q4 29 11 40l-3 7q2 32 11 41l-4 7q55 224 128 402 q78 181 204 391q35 41 161 223l66 55h4q7 -1 7 -8v-3q-110 -137 -186 -296l-52 -117q4 -7 4 -15l-25 -47l3 -8l-11 -25q4 0 4 -4l-11 -7l4 -8q-20 -87 -26 -87q0 -4 4 -4q-26 -79 -48 -285v-66q0 -171 11 -201l-4 -7q4 -7 4 -15q0 -3 -4 -3l4 -19v-54q0 -104 -73 -143 q-26 -4 -26 -7q-89 0 -117 62q-40 92 -40 168z" />
<glyph unicode="x" horiz-adv-x="1117" d="M0 73v22q0 100 256 249q132 112 157 165q46 37 99 212l-3 7q1 7 7 7q8 -8 11 -47q0 -88 -62 -278q-82 -186 -216 -319q-94 -76 -110 -76q0 -4 -33 -15h-33q-73 18 -73 73zM7 1328q18 92 73 92h33q110 -16 337 -289q119 -170 143 -213q11 -7 51 -87q17 -14 124 -249 q81 -199 143 -534h-4q8 -15 8 -22q-12 -8 -22 -8q-17 36 -44 139q-114 310 -256 509q-86 114 -136 168q-190 183 -358 326q-84 99 -84 128q-5 33 -8 40zM648 918q0 93 106 326q91 136 208 179q6 4 41 8q75 0 91 -48v-40q0 -35 -80 -99q-91 -39 -187 -113q-80 -62 -121 -136 q-41 -84 -51 -88z" />
<glyph unicode="y" horiz-adv-x="945" d="M-21 1311v4h4q0 4 -4 4q0 75 71 115l37 3q108 0 156 -312q37 -159 111 -323h4q6 2 74 137q58 105 93 149q247 331 409 331q78 -13 78 -56v-26q0 -65 -100 -175q-40 -44 -164 -148q0 -5 -93 -93q0 -4 -52 -56q0 -12 -29 -33q-131 -164 -131 -171q100 -109 160 -145 q58 -39 60 -48q0 -8 -8 -8h-15q-120 55 -223 152h-7q-74 -115 -104 -200q-108 -255 -108 -327q-48 -173 -48 -279q4 -20 4 -33l-8 -4q-5 0 -15 22q0 4 4 4l-7 74q0 115 48 398q56 230 134 427q3 7 3 15q-76 71 -152 171q-66 81 -108 164q-74 136 -74 267z" />
<glyph unicode="z" horiz-adv-x="970" d="M0 205v4q1 7 7 7h4q49 -51 201 -104l8 3q12 -7 22 -7h75q109 0 353 127q62 32 120 52h33q75 -16 75 -45q7 0 11 -30h3q0 -167 -286 -205q-49 -4 -56 -7q-4 0 -4 4l-19 -4h-40q-215 0 -406 112q-60 26 -101 93zM67 1345q0 75 93 89h30q32 0 235 -101q130 -44 134 -44 q3 0 3 3l56 -11h71q8 0 15 -4q76 8 145 34l93 56l4 -8v-11q-82 -84 -179 -119q-107 -46 -275 -63h-146q-75 11 -167 33q-112 46 -112 146zM78 302v11q0 90 119 186l79 56q6 11 137 108q159 129 272 279q123 200 123 227q9 23 15 23l11 -8q0 -59 -59 -197l-93 -212 q-112 -190 -246 -354q-165 -179 -205 -179q0 -13 -67 -19q-58 0 -86 79z" />
<glyph unicode="{" d="M240 638v60q172 5 223 71t51 133v468q0 74 77 141.5t185 67.5h108v-50h-90q-61 0 -107 -33.5t-47 -91.5v-500q0 -83 -60.5 -158.5t-142.5 -76.5v-2q82 -1 143 -76t61 -158l-1 -500q1 -58 47 -91.5t107 -33.5h90v-50h-108q-108 0 -184.5 67.5t-77.5 141.5v468 q0 66 -51 132t-223 71z" />
<glyph unicode="|" d="M427 -418v1995h160v-1995h-160z" />
<glyph unicode="}" d="M130 -192h90q61 0 107 33.5t47 91.5l-1 500q0 83 61 158t144 76v2q-83 1 -143.5 76.5t-60.5 158.5v500q-1 58 -47 91.5t-107 33.5h-90v50h108q108 0 185 -67.5t77 -141.5v-468q0 -67 51 -133t223 -71v-60q-172 -5 -223 -71t-51 -132v-468q-1 -74 -77.5 -141.5 t-184.5 -67.5h-108v50z" />
<glyph unicode="~" d="M94 556v156q64 73 123 99t114 26q64 0 181.5 -49.5t172.5 -49.5q52 0 108.5 28t129.5 112v-156q-63 -72 -122 -97.5t-116 -25.5q-60 0 -177.5 48.5t-176.5 48.5q-51 0 -107.5 -28t-129.5 -112z" />
<glyph unicode="&#xa1;" horiz-adv-x="672" />
<glyph unicode="&#xa2;" horiz-adv-x="1139" />
<glyph unicode="&#xa3;" d="M76 673v60h135q-58 143 -58 253q0 226 123.5 347t306.5 121h4q75 0 185.5 -14t110.5 -34v-161h-58q-5 61 -77 102q-72 31 -160 31h-2q-100 0 -190 -101q-84 -93 -84 -241q0 -15 1 -30q0 -135 53 -273h360v-60h-334q14 -30 31 -60q35 -63 35 -138q0 -161 -162 -375h402 q130 0 189 132l49 -1l-103 -231h-719l1 50q187 238 187 418q0 77 -34 143q-17 32 -31 62h-161z" />
<glyph unicode="&#xa4;" d="M122 413l118 117q-32 46 -48 103q-12 42 -12 84q0 44 13 87q16 55 47 99l-118 118l80 81l118 -118q44 30 99 46q44 14 89 14q41 0 83 -12q57 -17 102 -48l118 118l80 -81l-117 -117q31 -46 48 -102q12 -42 12 -85q0 -42 -12 -85q-17 -56 -48 -102l117 -117l-80 -81 l-118 118q-45 -32 -101 -48q-42 -12 -85 -12q-42 0 -85 12q-57 16 -102 48l-118 -118zM284 716q0 -28 9 -56q16 -59 57 -100q41 -40 99 -57q29 -8 58 -8t58 8q58 17 99 57q40 41 57 99q9 29 9 58t-9 58q-17 58 -57 99q-41 40 -100 57q-29 8 -58 8t-58 -9q-58 -17 -98 -56 q-39 -40 -56 -98q-10 -30 -10 -60z" />
<glyph unicode="&#xa5;" horiz-adv-x="1262" d="M8 1176q0 19 10.5 27.5t32.5 8.5q27 0 123 -8t164 -8h88q33 0 41 -6.5t8 -26.5q0 -8 -15 -14t-38 -6q-6 0 -18.5 2t-18.5 2q-24 0 -37.5 -9.5t-13.5 -25.5q0 -18 16.5 -52t46.5 -77l158 -221q13 -19 33 -53q41 -70 71 -70q9 0 16.5 5t14.5 15l277 396q8 12 13 26.5 t5 24.5q0 18 -10 27t-37 14q-15 2 -41 4q-47 3 -47 25q0 15 8 22.5t25 7.5q3 0 15 -1q56 -7 108 -7h139q30 0 65 1t37 1q11 0 18.5 -4.5t8.5 -11.5q0 -28 -38 -34q-18 -3 -27 -5q-63 -15 -147 -117q-7 -9 -12 -15l-169 -206h323q15 0 24 -6t9 -17q0 -15 -6 -20.5t-23 -5.5 h-366q-46 -57 -96.5 -112.5t-52.5 -59.5h511q18 0 25.5 -5.5t7.5 -17.5q0 -14 -7 -21t-22 -7h-530q0 -11 -1 -30.5t-1 -29.5l2 -215q0 -114 5.5 -150t20.5 -44q30 -17 107.5 -19t77.5 -31q0 -12 -10 -20t-25 -8q-2 0 -35.5 4t-64.5 4q-91 0 -208.5 -4t-142.5 -4q-31 0 -40 4 t-9 16t8 18.5t37 12.5q9 2 25 5q74 16 92 32q17 13 24 47t7 102l-2 242q0 19 -1.5 35t-4.5 32l-484 1q-14 0 -21 6.5t-7 19.5t6.5 19t21.5 6h467l-121 172h-344q-17 0 -23.5 5.5t-6.5 18.5q0 14 6 19.5t22 5.5h307q-43 57 -108 155q-131 197 -227 197q-7 0 -13 5.5t-6 11.5z " />
<glyph unicode="&#xa6;" d="M427 371h160v-789h-160v789zM427 789v789h160v-789h-160z" />
<glyph unicode="&#xa7;" d="M170 1130q0 148 89 237q82 79 216 86q8 1 17 1h3q66 0 163 -16.5t97 -41.5v-194h-51q-5 81 -80 132q-70 47 -149 51h-15q-78 0 -125 -44.5t-47 -117.5q0 -132 287 -269q149 -67 204.5 -143.5t55.5 -187.5q0 -171 -101 -282q-47 -39 -99 -64q108 -56 154 -118 q55 -77 55 -187q0 -171 -101 -283q-124 -102 -277 -105v1q-6 -1 -13 -1h-3q-66 0 -163 16.5t-97 41.5v194h51q5 -81 80 -132q68 -45 145 -50q113 6 185 69q72 64 72 165q0 125 -316 276q-123 64 -175.5 137t-52.5 177q0 148 89 237q67 65 170 82l-40 19q-123 64 -175.5 137 t-52.5 177zM297 571q0 -123 248 -250q56 16 97 53q73 65 73 166q0 5 -1 10h-2q-1 14 -4 27q-22 61 -113 127q-59 29 -126 29q-78 0 -125 -44.5t-47 -117.5z" />
<glyph unicode="&#xa8;" horiz-adv-x="1024" d="M209 1263q0 13 14 26l71 72q13 12 25 12q11 0 27 -14l69 -73q10 -14 10 -25q0 -13 -12 -27l-69 -75q-17 -17 -25 -17q-14 0 -25 12l-76 86q-9 12 -9 23zM574 1263q0 13 14 26l71 72q13 12 25 12q11 0 27 -13l69 -74q10 -14 10 -25q0 -13 -12 -26l-69 -76q-17 -17 -25 -17 q-14 0 -25 12l-76 87q-9 11 -9 22z" />
<glyph unicode="&#xa9;" horiz-adv-x="1674" d="M100 718q0 148 55.5 283t159.5 238q102 104 238.5 160.5t286.5 56.5q145 0 280 -56.5t239 -160.5q102 -101 158.5 -238t56.5 -283q0 -147 -56.5 -282t-162.5 -240q-105 -105 -239 -159.5t-283 -54.5q-146 0 -278 55.5t-238 160.5q-106 104 -161.5 237.5t-55.5 282.5z M160 718q0 -137 51 -259t148 -219q98 -96 219 -147t256 -51q137 0 259.5 50.5t219.5 145.5q97 98 149 221.5t52 258.5q0 134 -52 259.5t-145 219.5q-96 96 -220 147.5t-258 51.5q-137 0 -262 -51.5t-220 -147.5t-146 -219.5t-51 -259.5zM351 719q0 126 65.5 244t187.5 184.5 t254 66.5q38 0 75 -6.5t76 -20.5q5 -1 9 -1q19 0 26 30h42l72 -198h-44q-52 94 -131 124q-72 26 -147 26h-15q-86 -8 -166.5 -71t-121.5 -177q-33 -90 -33 -184q0 -25 2 -50q11 -121 69.5 -224t149.5 -152q72 -40 166 -42q124 0 194 56t70 126h53v-100q0 -46 -96.5 -86.5 t-242.5 -40.5q-142 0 -264 68t-186 185t-64 243z" />
<glyph unicode="&#xaa;" horiz-adv-x="648" />
<glyph unicode="&#xab;" horiz-adv-x="944" d="M174 479l342 303h14v-37l-205 -266l205 -266v-37h-14zM487 479l342 303h14v-37l-205 -266l205 -266v-37h-14z" />
<glyph unicode="&#xac;" d="M87 667v100h840v-491l-1 -1h-98v392h-741z" />
<glyph unicode="&#xad;" horiz-adv-x="670" d="M116 437v83q0 29 41 29h356q41 0 41 -29v-83q0 -28 -40 -28h-358q-40 0 -40 28z" />
<glyph unicode="&#xae;" horiz-adv-x="1674" d="M100 718q0 148 55.5 283t159.5 238q102 104 238.5 160.5t286.5 56.5q145 0 280 -56.5t239 -160.5q102 -101 158.5 -238t56.5 -283q0 -147 -56.5 -282t-162.5 -240q-105 -105 -239 -159.5t-283 -54.5q-146 0 -278 55.5t-238 160.5q-106 104 -161.5 237.5t-55.5 282.5z M160 718q0 -137 51 -259t148 -219q98 -96 219 -147t256 -51q137 0 259.5 50.5t219.5 145.5q97 98 149 221.5t52 258.5q0 134 -52 259.5t-145 219.5q-96 96 -220 147.5t-258 51.5q-137 0 -262 -51.5t-220 -147.5t-146 -219.5t-51 -259.5zM524 269v50h43q37 0 37 121v538 q0 121 -37 121h-43v70h356q64 -1 125 -42q60 -41 92.5 -114t32.5 -152q0 -78 -32 -150.5t-114 -134.5l82 -116q100 -141 150 -141h34v-50h-346v50h45q30 0 30 22q0 29 -69 114l-75 102q-42 0 -84 42v-159q0 -121 36 -121h53v-50h-316zM751 725l3 -8q23 -56 56 -81 q29 -22 56 -22h6q31 4 61.5 38.5t46.5 97.5q13 50 13 103q0 13 -1 27q-4 67 -28 124.5t-56.5 76t-63.5 18.5h-93v-374z" />
<glyph unicode="&#xaf;" horiz-adv-x="670" />
<glyph unicode="&#xb0;" horiz-adv-x="674" d="M60 1164q0 116 81.5 197t197.5 81q115 0 196 -81.5t81 -196.5q0 -114 -82 -196t-197 -82q-117 0 -197 81t-80 197zM130 1163q0 -87 61 -147t148 -60t147 60t60 147t-60.5 148t-146.5 61t-147.5 -61t-61.5 -148z" />
<glyph unicode="&#xb1;" />
<glyph unicode="&#xb2;" />
<glyph unicode="&#xb3;" />
<glyph unicode="&#xb4;" horiz-adv-x="1024" d="M316 1078l291 297q35 35 55.5 47t40.5 12q33 0 53.5 -20t20.5 -51q0 -22 -15.5 -42t-46.5 -40l-330 -203h-69z" />
<glyph unicode="&#xb5;" horiz-adv-x="1180" />
<glyph unicode="&#xb6;" horiz-adv-x="1024" d="M93 1086q0 157 107.5 253t285.5 96h443v-70h-127v-1365h-82v1365h-166v-1365h-84v738q-174 8 -275.5 102.5t-101.5 245.5z" />
<glyph unicode="&#xb7;" horiz-adv-x="508" d="M129 709q0 15 16 31l82 84q15 14 29 14q13 0 31 -16l80 -86q12 -16 12 -29q0 -15 -14 -31l-80 -88q-20 -20 -29 -20q-16 0 -29 14l-88 101q-10 13 -10 26z" />
<glyph unicode="&#xb8;" horiz-adv-x="1024" d="M360 -290q85 -52 152 -52q66 0 94.5 21.5t28.5 66.5t-49 64q-40 16 -102 16q-16 0 -34 -2l48 176h63l-37 -104q32 4 62 5q86 0 134 -40.5t48 -113.5q0 -76 -58.5 -120.5t-160.5 -44.5q-109 0 -189 32v96z" />
<glyph unicode="&#xb9;" />
<glyph unicode="&#xba;" horiz-adv-x="718" />
<glyph unicode="&#xbb;" horiz-adv-x="944" d="M101 176v37l205 266l-205 266v37h14l342 -303l-342 -303h-14zM414 176v37l205 266l-205 266v37h14l342 -303l-342 -303h-14z" />
<glyph unicode="&#xbc;" horiz-adv-x="1708" />
<glyph unicode="&#xbd;" horiz-adv-x="1964" />
<glyph unicode="&#xbe;" horiz-adv-x="1708" />
<glyph unicode="&#xbf;" horiz-adv-x="748" />
<glyph unicode="&#xc0;" horiz-adv-x="1540" />
<glyph unicode="&#xc1;" horiz-adv-x="1540" />
<glyph unicode="&#xc2;" horiz-adv-x="1540" />
<glyph unicode="&#xc3;" horiz-adv-x="1540" />
<glyph unicode="&#xc4;" horiz-adv-x="1540" />
<glyph unicode="&#xc5;" horiz-adv-x="1540" />
<glyph unicode="&#xc6;" horiz-adv-x="2118" />
<glyph unicode="&#xc7;" horiz-adv-x="1399" />
<glyph unicode="&#xc8;" horiz-adv-x="1151" />
<glyph unicode="&#xc9;" horiz-adv-x="1151" />
<glyph unicode="&#xca;" horiz-adv-x="1151" />
<glyph unicode="&#xcb;" horiz-adv-x="1151" />
<glyph unicode="&#xcc;" horiz-adv-x="657" />
<glyph unicode="&#xcd;" horiz-adv-x="657" />
<glyph unicode="&#xce;" horiz-adv-x="657" />
<glyph unicode="&#xcf;" horiz-adv-x="657" />
<glyph unicode="&#xd0;" horiz-adv-x="1518" />
<glyph unicode="&#xd1;" horiz-adv-x="1554" />
<glyph unicode="&#xd2;" horiz-adv-x="1614" />
<glyph unicode="&#xd3;" horiz-adv-x="1614" />
<glyph unicode="&#xd4;" horiz-adv-x="1614" />
<glyph unicode="&#xd5;" horiz-adv-x="1614" />
<glyph unicode="&#xd6;" horiz-adv-x="1614" />
<glyph unicode="&#xd7;" d="M161 470l247 247l-247 248l99 98l247 -247l248 247l98 -99l-247 -247l247 -247l-99 -99l-247 247l-247 -247z" />
<glyph unicode="&#xd8;" horiz-adv-x="1614" />
<glyph unicode="&#xd9;" horiz-adv-x="1501" />
<glyph unicode="&#xda;" horiz-adv-x="1501" />
<glyph unicode="&#xdb;" horiz-adv-x="1501" />
<glyph unicode="&#xdc;" horiz-adv-x="1501" />
<glyph unicode="&#xdd;" horiz-adv-x="1233" />
<glyph unicode="&#xde;" horiz-adv-x="1120" />
<glyph unicode="&#xdf;" horiz-adv-x="1251" />
<glyph unicode="&#xe0;" horiz-adv-x="922" />
<glyph unicode="&#xe1;" horiz-adv-x="922" />
<glyph unicode="&#xe2;" horiz-adv-x="922" />
<glyph unicode="&#xe3;" horiz-adv-x="922" />
<glyph unicode="&#xe4;" horiz-adv-x="922" />
<glyph unicode="&#xe5;" horiz-adv-x="922" />
<glyph unicode="&#xe6;" horiz-adv-x="1454" />
<glyph unicode="&#xe7;" horiz-adv-x="905" />
<glyph unicode="&#xe8;" horiz-adv-x="909" />
<glyph unicode="&#xe9;" horiz-adv-x="909" />
<glyph unicode="&#xea;" horiz-adv-x="909" />
<glyph unicode="&#xeb;" horiz-adv-x="909" />
<glyph unicode="&#xec;" horiz-adv-x="514" />
<glyph unicode="&#xed;" horiz-adv-x="514" />
<glyph unicode="&#xee;" horiz-adv-x="514" />
<glyph unicode="&#xef;" horiz-adv-x="514" />
<glyph unicode="&#xf0;" horiz-adv-x="1139" />
<glyph unicode="&#xf1;" horiz-adv-x="1108" />
<glyph unicode="&#xf2;" horiz-adv-x="1010" />
<glyph unicode="&#xf3;" horiz-adv-x="1010" />
<glyph unicode="&#xf4;" horiz-adv-x="1010" />
<glyph unicode="&#xf5;" horiz-adv-x="1010" />
<glyph unicode="&#xf6;" horiz-adv-x="1010" />
<glyph unicode="&#xf7;" d="M87 647v140h839l1 -1v-139h-840zM382 377q0 15 16 31l82 84q15 14 29 14q13 0 31 -16l80 -86q12 -16 12 -29q0 -15 -14 -31l-80 -88q-20 -20 -29 -20q-16 0 -29 14l-88 101q-10 13 -10 26zM382 1070q0 15 16 31l82 84q15 14 29 14q13 0 31 -16l80 -86q12 -16 12 -29 q0 -15 -14 -31l-80 -88q-20 -20 -29 -20q-16 0 -29 14l-88 101q-10 13 -10 26z" />
<glyph unicode="&#xf8;" horiz-adv-x="1010" />
<glyph unicode="&#xf9;" horiz-adv-x="1059" />
<glyph unicode="&#xfa;" horiz-adv-x="1059" />
<glyph unicode="&#xfb;" horiz-adv-x="1059" />
<glyph unicode="&#xfc;" horiz-adv-x="1059" />
<glyph unicode="&#xfd;" horiz-adv-x="868" />
<glyph unicode="&#xfe;" horiz-adv-x="1010" />
<glyph unicode="&#xff;" horiz-adv-x="868" />
<glyph unicode="&#x2c6;" horiz-adv-x="1024" d="M221 1079l232 355h118l232 -355h-58l-233 216l-233 -216h-58z" />
<glyph unicode="&#x2dc;" horiz-adv-x="1024" d="M234 1132q19 106 68 158.5t129 52.5q46 -1 113 -24q64 -23 112 -23h4q36 0 58 20t36 66h54q-20 -103 -68.5 -154t-126.5 -51h-4q-50 0 -113 23q-66 24 -114 24q-39 0 -60.5 -20.5t-33.5 -71.5h-54z" />
<glyph unicode="&#x2000;" horiz-adv-x="789" />
<glyph unicode="&#x2001;" horiz-adv-x="1579" />
<glyph unicode="&#x2002;" horiz-adv-x="789" />
<glyph unicode="&#x2003;" horiz-adv-x="1579" />
<glyph unicode="&#x2004;" horiz-adv-x="526" />
<glyph unicode="&#x2005;" horiz-adv-x="394" />
<glyph unicode="&#x2006;" horiz-adv-x="263" />
<glyph unicode="&#x2007;" horiz-adv-x="263" />
<glyph unicode="&#x2008;" horiz-adv-x="197" />
<glyph unicode="&#x2009;" horiz-adv-x="315" />
<glyph unicode="&#x200a;" horiz-adv-x="87" />
<glyph unicode="&#x2010;" horiz-adv-x="670" d="M116 437v83q0 29 41 29h356q41 0 41 -29v-83q0 -28 -40 -28h-358q-40 0 -40 28z" />
<glyph unicode="&#x2011;" horiz-adv-x="670" d="M116 437v83q0 29 41 29h356q41 0 41 -29v-83q0 -28 -40 -28h-358q-40 0 -40 28z" />
<glyph unicode="&#x2012;" horiz-adv-x="670" d="M116 437v83q0 29 41 29h356q41 0 41 -29v-83q0 -28 -40 -28h-358q-40 0 -40 28z" />
<glyph unicode="&#x2013;" horiz-adv-x="1108" d="M56 419v120h996v-120h-996z" />
<glyph unicode="&#x2014;" horiz-adv-x="2048" d="M0 419v120h2048v-120h-2048z" />
<glyph unicode="&#x2018;" horiz-adv-x="557" d="M186 1233q0 109 71 226.5t139 117.5v-43q-73 -43 -87 -190q0 -119 129 -161v-42l-119 -125q-44 0 -88.5 65.5t-44.5 151.5z" />
<glyph unicode="&#x2019;" horiz-adv-x="557" d="M119 1410v42l119 125q44 0 88.5 -65.5t44.5 -151.5q0 -109 -71 -226.5t-139 -117.5v43q73 43 87 190q0 119 -129 161z" />
<glyph unicode="&#x201a;" horiz-adv-x="557" d="M119 114v42l119 125q44 0 88.5 -65.5t44.5 -151.5q0 -109 -71 -226.5t-139 -117.5v43q73 43 87 190q0 119 -129 161z" />
<glyph unicode="&#x201c;" horiz-adv-x="910" d="M186 1233q0 109 71 226.5t139 117.5v-43q-73 -43 -87 -190q0 -119 129 -161v-42l-119 -125q-44 0 -88.5 65.5t-44.5 151.5zM539 1233q0 109 71 226.5t139 117.5v-43q-73 -43 -87 -190q0 -119 129 -161v-42l-119 -125q-44 0 -88.5 65.5t-44.5 151.5z" />
<glyph unicode="&#x201d;" horiz-adv-x="910" d="M119 1410v42l119 125q44 0 88.5 -65.5t44.5 -151.5q0 -109 -71 -226.5t-139 -117.5v43q73 43 87 190q0 119 -129 161zM472 1410v42l119 125q44 0 88.5 -65.5t44.5 -151.5q0 -109 -71 -226.5t-139 -117.5v43q73 43 87 190q0 119 -129 161z" />
<glyph unicode="&#x201e;" horiz-adv-x="910" d="M119 114v42l119 125q44 0 88.5 -65.5t44.5 -151.5q0 -109 -71 -226.5t-139 -117.5v43q73 43 87 190q0 119 -129 161zM472 114v42l119 125q44 0 88.5 -65.5t44.5 -151.5q0 -109 -71 -226.5t-139 -117.5v43q73 43 87 190q0 119 -129 161z" />
<glyph unicode="&#x2022;" horiz-adv-x="1024" d="M216 718q0 123 87 209t210 86q122 0 208.5 -86.5t86.5 -208.5t-87.5 -209.5t-209.5 -87.5q-123 0 -209 87t-86 210z" />
<glyph unicode="&#x2026;" horiz-adv-x="2048" d="M129 136q0 15 16 31l82 84q15 14 29 14q13 0 31 -16l80 -86q12 -16 12 -29q0 -15 -14 -31l-80 -88q-20 -20 -29 -20q-16 0 -29 14l-88 101q-10 13 -10 26zM812 136q0 15 16 31l82 84q15 14 29 14q13 0 31 -16l80 -86q12 -16 12 -29q0 -15 -14 -31l-80 -88 q-20 -20 -29 -20q-16 0 -29 14l-88 101q-10 13 -10 26zM1495 136q0 15 16 31l82 84q15 14 29 14q13 0 31 -16l80 -86q12 -16 12 -29q0 -15 -14 -31l-80 -88q-20 -20 -29 -20q-16 0 -29 14l-88 101q-10 13 -10 26z" />
<glyph unicode="&#x202f;" horiz-adv-x="315" />
<glyph unicode="&#x2039;" horiz-adv-x="631" d="M174 479l342 303h14v-37l-205 -266l205 -266v-37h-14z" />
<glyph unicode="&#x203a;" horiz-adv-x="631" d="M101 176v37l205 266l-205 266v37h14l342 -303l-342 -303h-14z" />
<glyph unicode="&#x205f;" horiz-adv-x="394" />
<glyph unicode="&#x20ac;" d="M-44 653l17 60h87v29q0 16 1 31h-71l17 60h58q14 145 76 281q81 178 226 274t298 96q43 0 87 -8q40 -10 82 -29q8 -6 16 -6q20 0 34 45h41l84 -281l-40 -1q-49 134 -138 178q-43 22 -81 32v3q-50 16 -101 16q-17 0 -34 -2q-120 -12 -226 -113.5t-157 -273.5 q-32 -104 -39 -211h706l-17 -60h-692q0 -30 2 -60h674l-17 -60h-652q17 -158 83 -298q74 -157 193 -236q102 -68 216 -69q186 3 256 91q74 91 74 185h48v-143q0 -70 -111 -127q-105 -54 -267 -56q-181 0 -325.5 98t-223.5 274q-62 135 -76 281h-108z" />
<glyph unicode="&#x2122;" horiz-adv-x="1497" />
<glyph unicode="&#x25fc;" horiz-adv-x="1430" d="M0 0v1430h1430v-1430h-1430z" />
</font>
</defs>
</svg>
